<svg xmlns="http://www.w3.org/2000/svg" width="263" height="218" viewBox="0 0 263 218" fill="none"><path d="M160.757 207.467L164.68 175.56L168.022 149.417L171.569 120.426L171.655 117.407L171.45 115.77L171.16 114.798L170.648 113.588L170.137 112.718L169.625 112.087L166.487 108.915L162.088 105.726L161.883 105.47L161.712 105.214L161.627 105.01L161.508 104.379L161.218 85.9267L161.167 85.5003L161.081 85.2445L160.962 84.9887L160.792 84.7329L160.621 84.5624L160.485 84.443L156.511 82.857L156.255 82.6865L156.017 82.4307L155.675 81.9191L153.629 79.9068L153.339 79.7363L153.083 79.651L152.759 79.6169L150.918 79.9579H150.628L150.338 79.9068L150.014 79.8215L149.724 79.6851L146.671 77.4681L145.887 77.0418L145.341 76.8372L144.795 76.7178L142.715 76.6666L142.203 76.5472L141.913 76.4279L141.402 76.0527L140.225 74.9272L139.441 73.9722L139.185 73.7334L138.929 73.597L138.639 73.5458L137.752 73.4606L137.172 73.29L133.625 71.2436L133.369 70.9878L133.045 70.6126L132.909 70.2374L132.568 69.0266L132.397 68.6856L132.193 68.3957L131.681 67.9011L130.624 67.1166L130.487 67.0314L130.351 66.8608L130.027 66.3663L129.908 66.0764L129.856 65.8206V65.5648L129.891 65.326L130.01 64.9167L130.334 64.1152L130.59 63.6548L132.67 61.1138L133.267 60.227L137.65 51.9561L138.4 50.8305L139.372 49.7391L140.583 48.6136L142.34 47.6415L148.206 45.4246L148.377 45.254L148.581 45.2029L149.127 45.0835L149.673 44.9641L151.054 45.1346L152.435 45.3052L153.851 45.4757L155.232 45.6463L156.477 45.7827L157.722 45.9532L158.967 46.1238L160.212 46.2943L160.911 46.3796L161.047 46.6354L161.644 47.6415L162.343 49.5345L162.395 49.9096L162.446 50.66L162.565 51.0863L162.736 51.5127L162.906 51.8367L163.196 52.0754L163.452 52.2801L163.708 52.5359L163.793 52.9111H164.458L166.675 52.8769L168.892 52.8428L171.075 52.8087L173.292 52.7746L173.582 53.0986L173.752 53.218L174.076 53.3544L174.11 53.4738L174.23 54.0707V54.5652L174.144 54.8893L173.855 54.7699L173.803 54.8552L173.769 54.9063V54.9575H174.008L174.213 54.9063L174.383 54.7869L174.434 54.5482L174.571 54.6676V54.7869L174.434 55.0427L174.383 55.4179L174.349 55.5885L174.434 55.9125L174.571 56.2024L175.611 57.362L175.662 57.5326L175.492 57.7884L175.406 58.0442V58.3341L175.458 58.624L175.577 58.8627L175.986 59.4084L176.071 59.5449L176.037 59.7154V59.7666L176.242 59.8859L176.651 60.0565L176.788 60.0906L177.214 60.0565L177.333 60.1076L177.572 60.227L177.709 60.2611L177.76 60.3123V60.3976L177.726 60.4828L177.675 60.534L177.589 60.5851H177.504L177.419 60.534L177.214 60.6534L177.163 60.7386V60.9433L177.282 61.1479L177.538 61.4037L177.828 61.6084L178.067 61.7277V61.7789L178.357 62.2052L178.851 62.6998L178.902 62.8362L178.783 63.1261V63.4672L178.834 63.5183L178.8 63.6377L178.681 63.8424L178.51 64.0811L178.34 64.2175L178.459 64.047V63.9276L178.425 63.5866L178.459 63.3819L178.544 63.2625L178.578 63.1432L178.527 62.9385L178.357 63.1432L178.152 63.6548L177.947 63.7912L178.186 63.1943L178.22 63.0238L178.135 62.768L178.05 62.8021L177.93 63.0067L177.692 63.9788V64.2175L177.657 64.2516L177.606 64.3369L177.64 64.4222L177.777 64.3881L177.828 64.3369L177.913 64.0982L177.999 64.0129V64.6439L178.05 64.7803L178.169 64.7462L178.288 64.6268L178.34 64.4904L178.459 64.6268V64.8315L178.425 65.0702L178.595 65.1214L178.715 65.0361L178.8 64.9167L178.851 64.7803V65.0191L178.817 65.1043L178.766 65.1555L178.817 65.2919V65.3772L178.732 65.4113L178.595 65.4454L178.732 65.7353L178.766 65.8206L178.476 65.6841H178.34L178.254 65.8206L178.51 65.9399H178.749L178.919 65.8035L179.039 65.5477H179.124L179.209 65.7524L179.073 65.9229L179.022 66.1787L179.073 66.4174H179.312L179.397 66.3322L179.346 66.2128L179.261 66.1275L179.226 66.0423L179.312 65.9058L179.448 65.8547L179.738 65.7694L179.977 65.7353L180.147 65.8206L180.574 66.2469L181.034 66.4857L181.153 66.6562L180.915 66.8267L181.085 66.8779H181.256L181.307 66.7585L181.256 66.6221L181.46 66.7074L181.699 66.7585L182.16 66.8097L182.279 66.7585L182.484 66.6391L182.603 66.605H182.722L182.978 66.6903H183.115L183.353 66.7756L183.558 66.9461L183.848 67.3554L183.933 67.4407L184.018 67.4918L184.104 67.543L184.189 67.6624L184.223 67.7476L184.257 68.0034L184.291 68.1228H184.121L184.035 68.0716L184.001 67.9352L184.035 67.7647H183.95L183.694 68.0887L182.995 68.0034L182.756 68.2592H182.637L182.552 68.0034H182.347L181.887 68.2592L181.972 68.3104L182.262 68.3615L182.398 68.4468L182.484 68.498L182.569 68.5832L182.654 68.6344L182.791 68.7197L182.876 68.8049L182.927 68.8561L183.012 68.822L183.217 68.6174V68.5832L183.268 68.5321L183.302 68.4468L183.353 68.3957L183.405 68.4468L183.524 68.5321L183.643 68.5832L183.558 68.7879L183.439 68.8732L183.302 68.9243L183.217 69.0607L183.183 69.1972L183.149 69.5382L183.115 69.7088L183.251 69.6747L183.387 69.5894L183.524 69.47L183.643 69.3507L183.78 69.3165L183.95 69.3507L184.206 69.4871L184.087 69.777L184.138 70.0328L184.223 70.3227L184.274 70.6126L184.24 71.1924L184.291 71.4482L184.496 71.4141V71.6699L184.581 71.7552L184.718 71.7211L184.837 71.6017L184.786 71.363L184.905 71.2436L185.11 71.2095L185.28 71.38L185.366 71.2606L185.417 71.4312L185.383 71.5676L185.297 71.704L185.263 71.8746L185.212 71.9939L185.127 72.0451H184.99L184.854 72.011L184.973 72.1815L185.263 72.2327L185.383 72.3691L185.502 72.318L185.587 72.1986L185.724 71.9087V71.9598H185.758L185.809 71.9939L185.673 72.2497L185.792 72.2839L186.116 72.1986L186.321 72.2327L186.645 72.3691H186.849L186.525 72.0281L186.406 71.7893L186.576 71.6188L186.747 71.5847L186.866 71.6699L186.986 71.7552L187.105 71.8064L187.19 71.7552L187.446 71.5165L187.395 71.7211L187.276 72.0622V72.2668L187.361 72.5908L187.412 72.7614L187.463 72.8466L187.702 72.966L187.941 73.2218L188.657 74.3473L189.032 74.8078L189.152 74.8931L189.493 75.0295L189.612 75.1488L189.783 75.3194L189.919 75.4388L190.669 75.7798L191.164 76.1209L191.454 76.155H191.744L192.034 76.1891L192.443 76.4279L192.784 76.7689L193.415 77.6387L193.62 78.0138L194.54 78.6789L194.745 78.9177L194.779 79.2587L194.234 78.7642L193.909 78.5596L193.244 78.4743L193.074 78.4231L192.954 78.2867L192.835 77.7751L192.716 77.8604L192.596 78.0991L192.545 78.3379V78.6789L192.596 78.8154L192.682 78.9518L192.801 79.0712L192.835 79.1564L192.784 79.9921L192.818 80.2308L193.159 81.2881L193.296 81.5269L193.5 81.7315L193.705 81.8679L194.762 82.2431L195.137 82.5671L195.376 83.0276L195.461 83.6586V85.1763L195.41 85.5003L195.291 85.7903L195.035 85.9267V85.722L194.95 85.6368L194.813 85.6879L194.694 85.8244L194.779 86.1654L194.745 86.7111L194.626 87.2569L194.506 87.632L194.336 87.4956L194.285 87.291V87.0522L194.251 86.8476L194.165 86.677L194.046 86.5918L193.927 86.5065L193.841 86.3871L193.79 86.336H193.739L193.688 86.3019L193.654 85.8926L193.62 85.8073L193.585 85.722L193.466 85.5856L193.33 85.4492L193.159 85.3298L193.04 85.381L192.699 86.0119L192.613 86.0972L192.477 86.1825L192.528 86.353L192.665 86.5577L192.716 86.6088L192.75 86.7282L192.869 86.8987L192.903 87.0352L192.869 87.0693L192.784 87.1034L192.699 87.1545L192.648 87.2739L192.682 87.4785L192.733 87.6832V87.8878L192.648 88.0925L192.852 88.1777L193.057 88.0584L193.142 87.8537L193.091 87.615L193.21 87.6491L193.296 87.7002L193.432 87.9049L193.483 87.939L193.534 87.9049L193.568 87.939L193.603 88.0243V88.1607H193.722L194.046 88.246L194.182 88.4506L194.234 88.6894L194.37 88.9452V89.0304L194.114 89.2862L194.251 89.9172L194.54 90.6335L194.779 91.0939L195.53 92.0148L195.854 92.5264L195.99 93.1574H195.905L195.666 92.5264L195.581 92.407L195.444 92.3729L195.274 92.2876L195.103 92.1683L194.967 91.9295L194.762 91.7931L194.592 91.759L194.54 92.0148L194.66 92.2194L194.984 92.4582L195.069 92.5946L195.12 92.4582L195.154 92.407H195.24L195.7 93.3791L197.133 95.2208L197.457 95.5108L197.423 95.3402L197.337 95.1015L197.303 94.9309L197.388 94.8798L197.525 94.7945L197.576 94.8286L197.627 95.1526L197.678 95.2379L197.729 95.272L197.764 95.3061L197.849 95.5108L198.088 95.6301L198.514 95.7495L198.633 95.8859L198.872 96.4828L198.787 96.5681L198.923 96.8068L199.094 97.1479L199.23 97.5572L199.281 97.8812V98.0517L199.196 98.3416V98.5122L199.23 98.7168L199.281 98.8362L199.333 98.9215L199.384 99.1602L199.554 99.5013L199.605 99.7059L199.52 100.286L199.605 100.831L199.725 101.155L199.861 101.326L199.946 101.07L200.27 101.326L200.612 101.752L200.748 101.991L200.953 102.196L201.208 103.083L201.498 103.287L201.754 103.526L201.873 104.072L201.908 104.907L201.942 105.044L202.061 105.299L202.197 105.538L202.317 105.658H202.522L202.76 105.419L202.794 105.385L202.828 105.419L203.715 106.885L204.295 107.551L204.926 107.84L205.676 107.926H206.376L206.58 107.875L207.041 107.738L207.876 107.039L207.91 107.158H207.996L208.541 107.073L208.661 107.124L208.695 107.158L208.729 107.209L208.78 107.261L208.865 107.346L209.002 107.227L209.036 107.312V107.346L209.002 107.465L208.968 107.585L208.882 107.619L208.797 107.704L208.831 107.84L208.882 107.96L208.917 107.994L208.882 108.454L208.968 108.54L209.172 108.454L209.343 108.335L209.684 107.738L209.718 107.687L209.855 107.568L209.991 107.448L210.11 107.278V106.954L210.281 107.073H210.52L210.724 107.124L210.775 107.295L210.861 107.465L210.997 107.499H211.202L211.372 107.619V107.738L211.168 107.823L210.912 107.909L210.707 108.028L210.588 108.233H210.554L210.264 108.557L210.213 108.676L210.162 108.847L210.11 108.932L209.36 109.478L209.241 109.648L209.206 109.699L209.036 109.938L208.985 110.057L208.951 110.194L208.917 110.518L208.882 110.637V110.893L208.848 110.927L208.712 110.893L208.661 110.927L208.627 110.961V111.422L208.678 111.473L209.462 111.558L209.752 111.473L209.889 111.388L210.008 111.302L210.127 111.217L210.298 111.183L211.134 111.353L211.338 111.524L211.713 111.95L212.259 112.087L212.31 112.633V112.974L212.276 113.843L212.361 114.184L212.532 114.508L213.248 115.429L213.879 116.299L214.544 117.135L215.175 117.97L215.84 118.84L216.471 119.676L217.136 120.511L217.767 121.347L218.432 122.182L219.063 123.052L219.729 123.888L220.36 124.723L221.025 125.559L221.656 126.395L222.321 127.23L222.952 128.066L223.617 128.902L224.282 129.771L224.538 130.01L224.828 130.095L226.84 130.385L228.562 130.624L230.285 130.863L232.007 131.101L233.729 131.34L235.452 131.579L237.174 131.818L238.897 132.056L240.619 132.295L242.341 132.534L244.064 132.773L245.786 133.011L247.509 133.25L249.231 133.489L250.954 133.728L252.676 133.966L254.398 134.205L256.104 134.444L256.274 134.393L257.11 133.335L257.894 134.666L258.9 136.337L259.907 138.008L260.913 139.714L261.919 141.385L262.584 142.476L262.703 142.766V143.09L262.243 144.608L262.192 144.778L262.107 145.068L261.868 145.819L261.527 146.978L261.066 148.479L260.521 150.27L259.89 152.265L259.259 154.362L259.088 154.874L258.576 156.545L257.877 158.728L257.246 160.826L256.615 162.821L256.07 164.578L255.609 166.078L255.268 167.238L255.029 167.954L254.944 168.244L254.535 169.506L252.659 170.171L250.527 170.921L248.396 171.672L246.298 172.422L244.166 173.207L242.035 173.957L239.903 174.707L237.771 175.458L235.639 176.208L233.508 176.958L231.376 177.709L229.278 178.459L227.147 179.244L225.015 179.994L222.883 180.744L220.752 181.495L218.62 182.245L217.29 182.705L217.239 182.74L217 182.774L215.278 183.012L213.282 183.302L211.287 183.592L209.292 183.882L207.297 184.172L205.301 184.462L203.289 184.718L201.294 185.008L199.298 185.298L197.303 185.587L195.308 185.877L193.313 186.133L191.317 186.423L189.322 186.713L187.31 187.003L185.315 187.293L184.394 187.412L183.336 187.583L181.716 187.787L180.744 188.163L180.659 188.214L180.42 188.333L180.13 188.47L179.84 188.606L179.55 188.742L179.261 188.879L179.175 188.913L178.936 189.032L178.681 189.169L178.34 189.339L178.084 189.476L176.089 190.482L173.701 191.727L171.569 192.818L169.983 193.62L169.898 193.705L169.693 193.824L168.738 195.035L167.613 196.468L165.618 198.923L163.776 201.26L162.565 202.777L162.36 203.187L161.764 204.807L160.928 207.109L160.587 207.569V207.604L160.757 207.467ZM187.31 69.5041L187.549 69.6235L188.214 69.794L188.845 69.9987L188.606 70.084L188.435 70.0328L188.231 69.9475L188.026 69.8964L187.821 69.9305L187.617 70.0157L187.446 70.1351L187.31 70.2715L187.19 70.1863H187.139L187.054 70.1351L186.969 70.101V70.0157L187.139 69.9305L187.173 69.8793L187.122 69.794L187.071 69.7429L187.037 69.6917L186.9 69.6406L186.764 69.6747L186.645 69.7088L186.525 69.7429L186.355 69.8282L186.218 69.9646L186.082 70.2033L185.997 70.4421L185.963 70.0669L186.201 69.7258L186.542 69.47L186.918 69.3848L187.054 69.4189L187.173 69.47L187.344 69.5894L187.31 69.5041Z" fill="#57585B" stroke="#878F92" stroke-width="0.5" stroke-linecap="round" stroke-linejoin="round"></path><path d="M148.308 45.1857L148.138 45.3562L142.271 47.5732L140.515 48.5452L139.304 49.6708L138.332 50.7622L137.582 51.8877L133.199 60.1587L132.602 61.0455L130.521 63.5864L130.266 64.0469L129.942 64.8484L129.822 65.2577L129.788 65.4964V65.7522L129.839 66.008L129.959 66.298L130.283 66.7925L130.419 66.963L129.908 67.7134L129.652 67.8498L129.328 67.9862L129.038 67.9521L128.782 67.8328L128.543 67.6622L128.373 67.4235L128.339 67.3894L128.287 67.3041L128.049 67.0995L127.878 66.6902L127.554 66.315L125.474 64.4391L125.184 64.2345L124.638 63.9105L124.212 63.774L120.375 63.1772L120.034 63.0578L119.607 62.8531L119.283 62.5973L118.959 62.3074L118.533 61.7106L117.493 58.9479L115.395 55.1449L115.19 54.855L114.9 54.6163L114.559 54.4969L114.133 54.531L113.792 54.6674L112.359 55.6224L111.865 55.8612L111.575 55.9124L111.251 55.8782L110.756 55.7077L109.426 55.0085L109.085 54.8891L108.659 54.855L107.414 54.9744L107.09 54.9403L106.749 54.855L106.323 54.5651L106.033 54.2411L105.862 53.8148L105.777 53.4908L105.743 53.3202L105.692 52.2629L105.657 52.1435L105.538 52.0241L105.282 51.8877H104.856L104.481 51.9389L104.14 52.1094L103.134 52.6551L102.792 52.7916L102.417 52.8768L102.008 52.9109L101.548 52.8598L100.951 52.621L100.524 52.3311L100.149 52.0412L98.6484 50.2335L98.3585 49.9777L98.1027 49.8072L97.5229 49.5684L93.2595 48.5964L92.9355 48.5623L91.6053 48.6476L90.0876 49.0227L89.7636 49.0739H89.4395L89.0132 48.9886L85.9947 48.0166L85.5854 47.9654L85.0738 47.9313L84.1871 48.0507L77.5873 49.5684H77.2974L76.5812 49.3979L75.1487 48.801L76.9052 47.0445L77.1098 46.7546L77.2292 46.4647L77.2804 46.2601L77.3145 46.1748L77.6385 41.4169L77.6897 41.1269L77.7749 40.8029L77.9455 40.513L78.1842 40.2231L78.5082 39.8991L79.8555 38.8588L90.224 32.3785L91.2643 31.5429L91.81 30.963L92.0487 30.6731L92.0999 30.3832L92.0146 30.0933L91.7759 29.8375L89.9 28.405L89.3031 27.8252L89.0985 27.5012L88.7233 26.8702L88.1776 25.54L88.007 25.3013L87.683 24.892L87.4443 24.6362L86.9838 24.3463L86.6087 24.2098L85.142 24.0052H84.1359L83.4367 23.9199L83.0274 23.7835L82.6863 23.613L80.2136 21.6177L79.8043 21.4131L79.3439 21.2937H78.0989L77.3486 21.4131L70.5442 21.2425L69.3846 20.9867L68.9583 20.8162L68.6342 20.6457L67.7134 19.8441L67.4234 19.6054L67.1335 19.4349L66.7242 19.3496L58.3169 18.0194L56.6797 17.9853L52.8427 18.5651L47.3173 19.1108L46.7205 19.0767L46.1747 18.9403L45.8848 18.8209L45.5949 18.6845L45.3391 18.4458L45.1345 18.1558L44.7081 17.4055L44.4694 16.9109L44.1283 16.28L43.719 15.7001L43.3439 15.325L42.2524 14.5405L42.0478 14.2847L41.9625 14.0459L41.9284 13.8413L41.8943 13.756L41.8432 13.3809L41.792 12.4941L41.8432 11.9995L43.3439 6.44007L45.6802 5.74088L48.477 4.93936L51.2738 4.13785L54.0705 3.30223L55.486 2.89294L55.9123 2.72241L57.413 1.30696L57.6518 1.10232L57.7711 1.06821H57.8223L57.8564 1.03411H57.8905L57.9246 1L60.3974 1.42634L62.8531 1.85268L65.3088 2.26196L67.7816 2.6883L68.7536 2.85883L73.017 3.69446L73.6821 3.95026L74.3813 4.35954L75.6432 5.1099L76.7347 5.77499L77.8261 6.44007L78.9175 7.07105L80.0089 7.73614L81.1004 8.40123L82.1577 9.03221L83.2491 9.6973L84.3405 10.3624L85.432 10.9934L86.5234 11.6585L87.6148 12.2894L88.7062 12.9545L89.7636 13.6196L90.855 14.2506L91.9464 14.9157L93.0378 15.5467L94.1293 16.2117L94.9649 16.928L96.0222 17.8489L97.0625 18.7357L98.1027 19.6566L99.16 20.5774L100.337 21.5836L101.513 22.6239L102.69 23.6641L102.929 23.8688L103.85 24.6703H103.884L105.18 25.7617L106.271 26.6485L107.363 27.5353L108.454 28.4221L109.546 29.3089L110.978 30.4685L112.394 31.6281L113.826 32.8048L115.242 33.9645L115.838 34.459L116.674 35.1241L118.089 36.2837L119.505 37.4434L120.937 38.603L122.114 39.5751L123.291 40.5301L124.467 41.4851L125.644 42.4571L126.616 43.2075L126.667 43.2416L126.753 43.2927L126.838 43.3268L126.923 43.361L128.049 43.4462L129.055 43.5315L130.027 43.6509L130.999 43.7361L132.005 43.8214L133.267 43.9408L134.529 44.0602L135.791 44.1795L137.087 44.2989L138.349 44.4183L139.611 44.5377L140.873 44.657L142.135 44.7764L143.09 44.8617L144.045 44.9469L145 45.0322L145.955 45.1175L147.251 45.2368L147.797 45.1175L148.138 45.0663L148.308 45.1857Z" fill="#57585B" stroke="#878F92" stroke-width="0.5" stroke-linecap="round" stroke-linejoin="round"></path><path d="M43.395 6.59351L41.8943 12.153L41.8431 12.6475L41.8943 13.5343L41.9454 13.9095L41.9795 13.9947L42.0136 14.1994L42.0989 14.4381L42.3036 14.6939L43.395 15.4784L43.7702 15.8536L44.1794 16.4334L44.5205 17.0644L44.7593 17.5589L45.1856 18.3093L45.3902 18.5992L45.646 18.8379L45.936 18.9744L46.2259 19.0937L46.7716 19.2302L47.3685 19.2643L52.8938 18.7186L56.7308 18.1387L58.368 18.1728L66.7754 19.503L67.1846 19.5883L67.4746 19.7588L67.7645 19.9976L68.6854 20.7991L69.0094 20.9696L69.4357 21.1402L70.5954 21.396L77.3997 21.5665L78.1501 21.4471H79.395L79.8554 21.5665L80.2647 21.7711L82.7375 23.7664L83.0785 23.9369L83.4878 24.0734L84.187 24.1586H85.1932L86.6598 24.3633L87.0349 24.4997L87.4954 24.7896L87.7341 25.0454L88.0582 25.4547L88.2287 25.6935L88.7744 27.0236L89.1496 27.6546L89.3542 27.9786L89.9511 28.5584L91.827 29.9909L92.0657 30.2467L92.151 30.5367L92.0998 30.8266L91.8611 31.1165L91.3154 31.6963L90.2751 32.5319L79.9066 39.0123L78.5594 40.0525L78.2353 40.3765L77.9966 40.6664L77.8261 40.9564L77.7408 41.2804L77.6896 41.5703L77.3656 46.3282L77.3315 46.4135L77.2803 46.6181L77.161 46.908L76.9563 47.1979L75.1998 48.9545L74.4153 48.7498L74.1595 48.7839L69.4357 50.7451L64.8313 53.3713L62.6655 53.9682L57.9757 56.2193L57.6517 56.4239L57.3618 56.6285L56.0146 58.1293L55.52 57.72L55.3495 57.6347L55.1449 57.5835L54.8208 57.5494L54.3945 57.6347L54.0193 57.72L52.7233 58.3851L52.3992 58.5215L52.1093 58.5556L51.7853 58.5215L51.5295 58.351L51.3249 58.1122L50.9838 57.2766H50.4381L50.1993 57.2425L49.9435 57.1572L49.5172 56.9014L49.2273 56.8502L48.818 56.9696L48.494 57.106L48.0847 57.2425L47.6243 57.2766L45.1515 57.0208L44.367 56.8502L43.0198 56.3898L42.44 56.0487L41.6044 55.3495L41.3997 55.0937L41.1951 54.8038L41.0586 54.5139L40.854 54.0194L40.7176 53.4225L40.6323 52.621L40.5982 51.359L40.7176 49.0909L40.6664 48.7669L40.547 48.477L40.3083 48.3064L40.0184 48.2553L39.7626 48.3405L38.9781 49.0909L38.1425 49.6025L37.8867 49.8412L37.7162 50.1312L37.5797 50.4211L37.0681 51.7171L36.9317 52.007L36.7271 52.2628L36.4371 52.3993L36.0961 52.4845L33.9644 52.3481L32.9241 52.1435L31.0312 51.5125L30.3149 51.3931H29.3429L26.3756 52.0582L24.9942 52.5698H24.4997L23.9881 52.3993L23.9028 52.3481L23.8175 52.2628L20.6285 48.0847L20.2192 47.7096L19.6735 47.3344L19.3836 47.1979L16.9279 46.6011H16.1264L15.1543 46.7716L13.5172 46.891L10.9592 47.3855L10.4476 47.5561L10.0212 47.7607L9.5949 48.1871L9.39025 48.3064L9.06624 48.3576L7.27562 48.1871L6.26946 47.9313L5.84312 47.8971L5.43384 47.9824L4.37652 48.0165V47.9654L4.17188 47.8801V47.7948L4.34241 47.4708L4.54705 46.891L4.63232 46.2941L4.49589 45.953V45.7484L4.63232 45.4926L4.7517 45.1686L5.0075 43.9066L5.05866 43.702L5.19509 43.378L5.16098 43.2927L5.19509 43.088L5.31446 42.9687L5.60437 42.7981L5.5191 42.5594L5.485 42.2354L5.5191 42.0307L5.68964 42.116V42.0307L5.72375 41.9966H5.77491L5.65553 41.792L5.62142 41.5532L5.67259 41.3145L7.05392 41.5703L8.52052 41.8261L10.4476 42.1501L12.17 42.4741L14.0118 42.7981L15.4784 43.0539L16.1946 43.1733L17.6271 43.4291L18.9232 43.6338H19.2472L19.5712 43.4973L20.9184 42.4059L22.2486 41.3145L23.6811 40.1037L24.6361 39.3022L25.4376 37.9549L26.2221 36.6589L26.8019 35.6868L27.5011 34.5101L27.791 34.1861L28.1321 34.0156L29.1894 33.7768L30.3149 33.5381L32.1055 33.1629L33.8621 32.8218L35.5333 32.4808L36.9999 32.1567L37.2557 31.918L37.8014 30.5708L38.2278 29.5646L38.6541 28.4732L39.0293 27.5864L39.1998 27.3306L39.4897 27.0918L40.8199 26.3074L42.3377 25.4718L43.2244 24.9602L43.3097 24.909L42.7128 24.1927L41.3656 22.5727L39.9843 20.9526L38.637 19.3325L37.2898 17.7124L37.2387 17.6783L37.2045 17.6271L37.1704 17.576L37.1193 17.5419L35.4992 15.7854L33.9132 14.063L33.8791 14.0288L32.259 12.2723L30.6389 10.5158L31.0994 10.3794L33.7256 9.57787L36.7782 8.65698L39.8649 7.73609L40.6153 7.53145L42.9516 6.8152L43.412 6.69583L43.395 6.59351Z" fill="#57585B"></path><path d="M43.3097 24.909L43.2244 24.9602L42.3377 25.4718L40.8199 26.3074L39.4897 27.0918L39.1998 27.3306L39.0293 27.5864L38.6541 28.4732L38.2278 29.5646L37.8014 30.5708L37.2557 31.918L36.9999 32.1567L35.5333 32.4808L33.8621 32.8218L32.1055 33.1629L30.3149 33.5381L29.1894 33.7768L28.1321 34.0156L27.791 34.1861L27.5011 34.5101L26.8019 35.6868L26.2221 36.6589L25.4376 37.9549L24.6361 39.3022L23.6811 40.1037L22.2486 41.3145L20.9184 42.4059L19.5712 43.4973L19.2472 43.6338H18.9232L17.6271 43.4291L16.1946 43.1733L15.4784 43.0539L14.0118 42.7981L12.17 42.4741L10.4476 42.1501L8.52052 41.8261L7.05392 41.5703L5.67259 41.3145L5.62142 41.5532L5.65553 41.792L5.77491 41.9966H5.72375L5.68964 42.0307V42.116L5.5191 42.0307L5.485 42.2354L5.5191 42.5594L5.60437 42.7981L5.31446 42.9687L5.19509 43.088L5.16098 43.2927L5.19509 43.378L5.05866 43.702L5.0075 43.9066L4.7517 45.1686L4.63232 45.4926L4.49589 45.7484V45.953L4.63232 46.2941L4.54705 46.891L4.34241 47.4708L4.17188 47.7948V47.8801L4.37652 47.9654V48.0165L5.43384 47.9824L5.84312 47.8971L6.26946 47.9313L7.27562 48.1871L9.06624 48.3576L9.39025 48.3064L9.5949 48.1871L10.0212 47.7607L10.4476 47.5561L10.9592 47.3855L13.5172 46.891L15.1543 46.7716L16.1264 46.6011H16.9279L19.3836 47.1979L19.6735 47.3344L20.2192 47.7096L20.6285 48.0847L23.8175 52.2628L23.9028 52.3481L23.9881 52.3993L24.4997 52.5698H24.9942L26.3756 52.0582L29.3429 51.3931H30.3149L31.0312 51.5125L32.9241 52.1435L33.9644 52.3481L36.0961 52.4845L36.4371 52.3993L36.7271 52.2628L36.9317 52.007L37.0681 51.7171L37.5797 50.4211L37.7162 50.1312L37.8867 49.8412L38.1425 49.6025L38.9781 49.0909L39.7626 48.3405L40.0184 48.2553L40.3083 48.3064L40.547 48.477L40.6664 48.7669L40.7176 49.0909L40.5982 51.359L40.6323 52.621L40.7176 53.4225L40.854 54.0194L41.0586 54.5139L41.1951 54.8038L41.3997 55.0937L41.6044 55.3495L42.44 56.0487L43.0198 56.3898L44.367 56.8502L45.1515 57.0208L47.6243 57.2766L48.0847 57.2425L48.494 57.106L48.818 56.9696L49.2273 56.8502L49.5172 56.9014L49.9435 57.1572L50.1993 57.2425L50.4381 57.2766H50.9838L51.3249 58.1122L51.5295 58.351L51.7853 58.5215L52.1093 58.5556L52.3992 58.5215L52.7233 58.3851L54.0193 57.72L54.3945 57.6347L54.8208 57.5494L55.1449 57.5835L55.3495 57.6347L55.52 57.72L56.0146 58.1293L57.3618 56.6285L57.6517 56.4239L57.9757 56.2193L62.6655 53.9682L64.8313 53.3713L69.4357 50.7451L74.1595 48.7839L74.4153 48.7498L75.1998 48.9545L76.9563 47.1979L77.161 46.908L77.2803 46.6181L77.3315 46.4135L77.3656 46.3282L77.6896 41.5703L77.7408 41.2804L77.8261 40.9564L77.9966 40.6664L78.2353 40.3765L78.5594 40.0525L79.9066 39.0123L90.2751 32.5319L91.3154 31.6963L91.8611 31.1165L92.0998 30.8266L92.151 30.5367L92.0657 30.2467L91.827 29.9909L89.9511 28.5584L89.3542 27.9786L89.1496 27.6546L88.7744 27.0236L88.2287 25.6935L88.0582 25.4547L87.7341 25.0454L87.4954 24.7896L87.0349 24.4997L86.6598 24.3633L85.1932 24.1586H84.187L83.4878 24.0734L83.0785 23.9369L82.7375 23.7664L80.2647 21.7711L79.8554 21.5665L79.395 21.4471H78.1501L77.3997 21.5665L70.5954 21.396L69.4357 21.1402L69.0094 20.9696L68.6854 20.7991L67.7645 19.9976L67.4746 19.7588L67.1846 19.5883L66.7754 19.503L58.368 18.1728L56.7308 18.1387L52.8938 18.7186L47.3685 19.2643L46.7716 19.2302L46.2259 19.0937L45.936 18.9744L45.646 18.8379L45.3902 18.5992L45.1856 18.3093L44.7593 17.5589L44.5205 17.0644L44.1794 16.4334L43.7702 15.8536L43.395 15.4784L42.3036 14.6939L42.0989 14.4381L42.0136 14.1994L41.9795 13.9947L41.9454 13.9095L41.8943 13.5343L41.8431 12.6475L41.8943 12.153L43.395 6.59351L43.412 6.69583L42.9516 6.8152L40.6153 7.53145L39.8649 7.73609L36.7782 8.65698L33.7256 9.57787L31.0994 10.3794L30.6389 10.5158L32.259 12.2723L33.8791 14.0288L33.9132 14.063L35.4992 15.7854L37.1193 17.5419L37.1704 17.576L37.2045 17.6271L37.2387 17.6783L37.2898 17.7124L38.637 19.3325L39.9843 20.9526L41.3656 22.5727L42.7128 24.1927L43.3097 24.909ZM43.3097 24.909H43.3438" stroke="#878F92" stroke-width="0.5" stroke-linecap="round" stroke-linejoin="round"></path><path d="M164.663 175.56L160.74 207.467H160.706L160.451 207.638L160.195 207.774L159.939 207.91L159.854 207.996L159.308 208.32L157.79 209.206L157.5 209.326H155.454V209.36L155.369 209.326H155.198L155.062 209.241L154.004 207.774L153.118 206.478L152.316 205.352L151.856 205.097L149.093 205.472L147.012 205.762L144.011 205.438L141.658 205.199L138.571 204.875L135.928 204.585L135.382 204.414L133.335 203.238L132.636 203.101L130.539 203.067H128.697L126.19 203.033H126.156L125.917 203.084L125.167 203.374L125.133 203.408H124.758L123.922 203.238L123.137 203.204L121.961 203.323L121.006 203.562L120.75 203.596L120.238 203.425L119.983 203.391L119.812 203.528L119.693 203.732L119.641 203.852L119.437 204.09L119.198 204.21L118.874 204.159L118.379 203.92L118.175 203.886L117.919 204.022H117.885L117.714 204.261L117.663 204.38L117.544 204.517L117.373 204.687L117.049 204.738L116.913 204.704L116.862 204.653L116.811 204.602L116.776 204.517L116.811 204.261V204.124L116.725 204.073L116.435 204.193H116.197L115.856 204.159L115.719 204.124L115.259 204.176H115.02L114.781 204.09L114.491 203.886L114.253 203.681L113.622 202.965V202.556L113.963 201.225L113.929 200.526L113.673 199.742L113.639 199.418V199.043L113.758 198.531L114.082 195.649L114.048 195.103L113.929 194.557L113.724 193.978L113.604 193.398V193.074L113.724 192.699L113.98 192.204L114.304 191.795L116.316 189.663L117.697 188.452L118.107 188.043L118.243 187.804L118.379 187.548L118.669 186.832L118.84 186.508L119.13 186.218L119.42 186.014L119.71 185.894L120.579 185.724L121.125 185.519L121.705 185.229L122.251 184.854L122.489 184.615L122.66 184.377L122.83 184.121L122.95 183.78L123.035 183.439L123.069 182.944V182.484L123.018 181.904L122.592 180.232V179.908L122.677 179.567L123.001 179.073L123.291 178.817L124.092 178.391L124.297 178.254L124.416 178.084L124.502 177.794L124.553 177.368V175.696L128.015 177.879L128.902 178.305L129.567 178.561L130.743 178.851L133.932 179.056L163.043 175.918L164.663 175.458V175.56Z" fill="#57585B" stroke="#878F92" stroke-width="0.5" stroke-linecap="round" stroke-linejoin="round"></path><path d="M124.553 175.782V177.453L124.502 177.879L124.417 178.169L124.297 178.34L124.093 178.476L123.291 178.902L123.001 179.158L122.677 179.653L122.592 179.994V180.318L123.018 181.989L123.07 182.569V183.029L123.035 183.524L122.95 183.865L122.831 184.206L122.66 184.462L122.49 184.701L122.251 184.939L121.705 185.314L121.125 185.604L120.58 185.809L119.71 185.98L119.42 186.099L119.13 186.304L118.84 186.593L118.67 186.917L118.38 187.634L118.243 187.89L118.107 188.128L117.698 188.538L116.316 189.748L114.304 191.88L113.98 192.289L113.724 192.784L113.605 193.159V193.483L113.724 194.063L113.929 194.643L114.048 195.188L114.082 195.734L113.758 198.616L113.639 199.128V199.503L113.673 199.827L113.929 200.611L113.963 201.311L113.622 202.641V203.05L113.383 202.794L112.872 202.47L112.582 202.351L111.951 202.061L111.746 202.01H111.32L111.081 201.959L110.825 201.993L110.535 202.112L109.938 202.487L109.563 201.908L108.898 200.935L108.693 200.68L108.438 200.441L107.483 200.1L107.244 199.929L107.039 199.674L106.664 198.838L106.494 198.582L106.17 198.258L105.197 197.474L104.993 197.133L104.942 196.809L104.976 196.263L104.925 196.024L104.754 195.819L104.26 195.734H104.174L103.594 196.075L103.083 196.45L102.844 196.689L102.674 196.945L102.418 197.457L101.838 199.622L101.719 199.878L101.548 200.049L101.309 200.168H101.053L100.798 200.049L100.474 199.844L99.314 198.633L99.1094 198.309L98.9388 197.985L98.8536 197.729L98.7172 197.44L98.4613 197.201L98.1203 196.996L97.8304 196.945L95.8692 196.911L95.5793 196.826L95.3235 196.689L95.0677 196.365L94.9313 196.109L94.7948 195.615L94.7096 195.495L94.5049 195.257L94.1809 195.086L93.891 195.001L93.6352 194.967L92.7996 195.086L92.5438 195.035L92.3391 194.83L92.2198 194.489V193.892L92.4756 192.341V192.051L92.4244 191.812L92.305 191.607L91.8105 191.471L90.395 191.59L90.8214 189.919L90.8725 189.578V189.237L90.7873 188.827L89.9175 186.235L89.7811 185.98L89.5765 185.775L89.3377 185.638L89.0819 185.553L88.5362 185.434L88.0246 185.4H86.6774L86.4216 185.349L86.1828 185.212L85.9441 185.007L85.8076 184.752L85.7224 184.462L85.6371 184.206L85.5859 183.66L85.6712 180.608L85.7053 180.352L85.8247 180.233L86.0293 180.318L86.234 180.488L86.4898 180.608L86.7285 180.642L86.9673 180.522L87.5983 180.028L88.144 179.704L88.4339 179.619L88.6897 179.567H88.9796L90.3609 179.704H90.5315L90.702 179.653L90.9407 179.567L91.1795 179.397L91.35 179.158L91.4694 178.902L91.8957 177.555V177.231L91.8105 176.907L91.2989 176.02L91.2477 175.764L91.2136 175.423V175.099L91.5888 173.377L91.6229 173.121V172.865L91.5376 172.575L91.4012 172.32L91.1965 172.081L91.0601 171.962L90.8896 171.876L90.6338 171.842L90.1222 171.876L89.5765 172.115L90.8214 169.386L91.026 168.721L91.0772 167.8L91.1965 167.425L91.3671 167.084L91.657 166.828L93.1236 165.788L93.3794 165.532L93.6693 165.123L93.7546 164.799L93.7034 164.475L93.567 164.236L93.243 163.912L93.1577 163.503L93.1236 163.162L93.7205 161.116L93.9592 161.491L95.2212 164.117L95.4258 164.407L95.6646 164.611L95.9204 164.748L96.2103 164.833L96.5514 164.799L96.9606 164.68L97.6598 164.305L98.0691 163.98L101.241 161.133L103.697 159.785L104.038 159.495L104.532 159.001L104.856 158.796L105.197 158.66L105.624 158.575L106.408 158.54L106.613 158.506L106.852 158.421L107.636 158.097L108.045 157.978L108.557 157.892L108.898 157.926L109.239 157.978L110.024 158.268L110.399 158.233L110.825 158.097L112.786 156.937L114.116 156.426L115.924 158.063L116.589 158.864L116.999 159.495L117.749 160.467L118.755 161.627L118.926 161.951L119.011 162.241L119.045 162.48L119.011 162.736V162.787L118.926 163.043L118.806 163.281L118.09 164.458L117.851 164.953L117.357 167.221V167.545L117.442 167.971L117.647 168.295L118.346 169.131L119.557 171.143L124.451 175.662L124.656 175.799L124.553 175.782Z" fill="#57585B" stroke="#878F92" stroke-width="0.5" stroke-linecap="round" stroke-linejoin="round"></path><path d="M90.4285 191.539L91.8439 191.42L92.3385 191.556L92.4579 191.761L92.509 191.999V192.289L92.2532 193.841V194.438L92.3726 194.779L92.5772 194.984L92.833 195.035L93.6687 194.916L93.9245 194.95L94.2144 195.035L94.5384 195.206L94.743 195.444L94.8283 195.564L94.9647 196.058L95.1012 196.314L95.357 196.638L95.6128 196.774L95.9027 196.86L97.8638 196.894L98.1537 196.945L98.4948 197.15L98.7506 197.388L98.887 197.678L98.9723 197.934L99.1428 198.258L99.3475 198.582L100.507 199.793L100.831 199.998L101.087 200.117H101.343L101.582 199.998L101.752 199.827L101.871 199.571L102.451 197.405L102.707 196.894L102.878 196.638L103.116 196.399L103.628 196.024L104.208 195.683H104.293L104.788 195.768L104.958 195.973L105.009 196.212L104.975 196.757L105.026 197.081L105.231 197.423L106.203 198.207L106.527 198.531L106.698 198.787L107.073 199.622L107.277 199.878L107.516 200.049L108.471 200.39L108.727 200.629L108.932 200.884L109.597 201.856L109.972 202.436L109.477 202.76L108.727 203.391L108.403 203.681L107.806 204.432L107.772 204.483L108.471 204.721L108.727 204.926L108.812 205.131L108.846 205.182L108.812 205.438L108.522 205.574L108.232 205.659L107.908 205.779L107.653 206.017L107.567 206.256L107.601 206.58L107.516 206.836L107.26 207.348L107.209 207.603L107.243 207.842L107.363 208.047L107.414 208.337V208.627L107.363 208.882L107.158 209.377L107.073 209.701L107.124 209.94L107.38 210.434L107.516 210.929L107.653 211.048L108.113 211.168L108.249 211.287L108.335 211.423V211.594L108.301 211.713L108.181 211.799L108.062 211.85L107.942 211.901L107.772 212.191L107.806 212.361L107.925 212.566L108.011 212.856V212.89L107.925 213.129L107.806 213.163L107.721 213.197L107.431 213.112L107.192 213.061L106.902 213.009L106.732 213.061L106.681 213.231L106.646 213.521L106.612 213.76L106.288 214.63L106.118 214.834L105.879 215.005L105.845 215.039L105.299 215.363L105.129 215.448L104.992 215.482L104.651 215.533L104.515 215.585L104.481 215.755L104.515 215.96V216.164L104.429 216.369L104.088 216.608L103.662 216.778L103.577 216.829L103.082 217L103.048 216.949V216.488L102.963 216.352L103.133 215.943L103.048 215.687L102.451 215.022L102.315 214.698L102.281 214.459V213.879L102.417 213.333V213.095L102.178 213.044L102.264 212.924L102.127 212.788L102.008 212.583L101.974 212.413L102.093 212.327L102.042 212.191L101.701 211.867L101.616 211.782L101.445 211.543L101.155 211.219L101.07 211.134L100.695 210.929L100.558 210.895L100.422 210.98L100.013 210.383L100.183 209.803L100.098 209.599V208.968L100.047 208.729L99.9273 208.678L99.7909 208.593L99.7568 208.456L99.6374 208.337L99.3986 208.303H98.9723L98.8359 208.166L98.7165 207.962L98.546 207.586L98.4948 207.416L98.4437 206.955L98.3925 206.785L98.2731 206.666L97.7274 206.427L97.7615 206.666L97.8468 206.87L98.0855 207.245L97.8297 207.382L97.9491 208.251L97.8297 208.49L97.7445 208.234V207.348L97.6933 207.058L97.5228 206.563L97.3181 204.807L97.2328 204.483L97.1817 204.244L97.267 203.579L97.2328 203.323L97.1476 202.999L97.0623 202.88L96.9429 202.846L96.8065 202.811L96.7212 202.777L96.6701 202.726L96.636 202.607L96.5507 202.47L95.2205 201.311L95.1012 201.277L95.067 201.328L94.9818 201.208L94.8454 200.953L94.6066 200.612L94.5213 200.373L94.4702 200.253L94.3849 200.219L94.095 200.27L93.9756 200.236L93.9245 200.066L93.8733 199.946L93.3276 199.401L93.2935 199.435L93.2423 199.469L93.1229 199.503H93.0718L92.9524 199.384L92.5772 198.838L92.4408 198.753L91.7246 198.053L91.4347 198.173L90.9742 197.849L90.6843 197.883L90.5649 197.542L90.3603 197.337L90.0704 197.133L89.8316 196.894L89.32 196.229L89.2347 195.99L89.2689 195.819L89.303 195.683L89.2689 195.598L89.1324 195.547L89.013 195.513V195.274L88.9789 195.189L88.4673 194.728L88.2627 194.438L88.3821 194.199L88.3309 194.114L88.5697 193.568L88.689 193.33L88.8937 193.091L89.1324 192.954L89.9169 192.528L90.1556 192.289L90.2921 192.085L90.5308 191.573L90.4285 191.539ZM95.5787 212.498V212.668L95.5446 212.907L95.4593 213.197L95.4934 213.436L95.6128 213.811L95.4934 214.067V214.101L95.2035 214.067L94.8624 213.657L94.5725 213.538H94.3167L94.1803 213.402L94.5554 213.265L94.7601 213.129L94.6748 212.839L94.3508 212.668L94.0268 212.72L93.6516 212.754L93.3958 212.805L93.1571 212.941L92.9524 213.061L92.7137 212.975L92.4238 212.72L92.2191 212.515L91.9292 212.464L91.6052 212.225L91.2812 211.969L91.1447 211.713L91.0595 211.304L90.8548 211.168H90.6161L90.4797 211.134L90.5138 211.048V210.758L90.3091 210.52L90.1897 210.264L90.2239 210.025L90.3944 210.076L90.4797 210.161L90.6161 210.281L91.1106 210.52L91.3664 210.844L91.5029 211.014L91.537 211.338V211.475L91.7757 211.73L91.9804 211.901L92.0656 211.952L92.5261 211.901L92.6625 212.157H92.9013L93.1571 212.071H93.3958L93.5322 212.208V212.344H93.6687L94.0438 212.208L93.7028 212.123L93.4981 211.833L93.6687 211.594L93.7539 211.219L93.8392 211.099L94.0097 211.065L94.0609 211.099L94.1803 211.151L94.5213 211.355V211.56L94.6919 211.85L94.6578 211.986L94.9818 212.02L95.067 212.276L95.5275 212.481L95.5787 212.498ZM92.2703 211.372L92.0997 211.236L91.8951 210.997L91.5711 210.588L91.3153 210.213L91.23 210.076L91.3664 209.957L91.6563 209.923L91.8951 209.872L92.0315 209.735L92.1509 209.496H92.2873L92.3214 209.531L92.3726 209.275L92.2873 208.951L92.1168 208.865L91.9463 208.78H91.8098L91.5199 208.729L91.3835 208.695L91.3323 208.644L91.4517 208.558L91.5711 208.507L91.6052 208.627L92.0145 208.661L92.3385 208.797L92.5431 209.036L92.5772 209.087L92.6284 209.428V209.684L92.5772 209.974L92.6284 210.213L93.0377 210.298L93.1571 210.588L92.6455 210.622L92.509 210.792L92.5602 211.031L92.8842 211.151L93.0547 211.236L93.2935 211.355L93.3788 211.679V211.816L93.0036 211.577L92.5431 211.458L92.3385 211.406L92.2703 211.372Z" fill="#57585B" stroke="#878F92" stroke-width="0.5" stroke-linecap="round" stroke-linejoin="round"></path><path d="M4.32544 47.8971L5.38276 47.863L5.79204 47.7778L6.21838 47.8119L7.22454 48.0677L9.01516 48.2382L9.33917 48.187L9.54382 48.0677L9.97015 47.6413L10.3965 47.4367L10.9081 47.2662L13.4661 46.7716L15.1033 46.6522L16.0753 46.4817H16.8768L19.3325 47.0786L19.6224 47.215L20.1682 47.5902L20.5774 47.9653L23.7665 52.1435L23.8517 52.2287L23.937 52.2799L24.4486 52.4504H24.9431L26.3245 51.9388L29.2918 51.2737H30.2638L30.9801 51.3931L32.873 52.0241L33.9133 52.2287L36.045 52.3652L36.3861 52.2799L36.676 52.1435L36.8806 51.8877L37.017 51.5977L37.5286 50.3017L37.6651 50.0118L37.8356 49.7219L38.0914 49.4831L38.927 48.9715L39.7115 48.2211L39.9673 48.1359L40.2572 48.187L40.496 48.3576L40.6153 48.6475L40.6665 48.9715L40.5471 51.2396L40.5812 52.5016L40.6665 53.3031L40.8029 53.9L41.0076 54.3945L41.144 54.6844L41.3486 54.9743L41.5533 55.2301L42.3889 55.9293L42.9687 56.2704L44.316 56.7309L45.1004 56.9014L47.5732 57.1572L48.0336 57.1231L48.4429 56.9867L48.7669 56.8502L49.1762 56.7309L49.4661 56.782L49.8925 57.0378L50.1483 57.1231L50.387 57.1572H50.9327L51.2738 57.9928L51.4784 58.2316L51.7342 58.4021L52.0583 58.4362L52.3482 58.4021L52.6722 58.2657L53.9682 57.6006L54.3434 57.5153L54.7698 57.4301L55.0938 57.4642L55.2984 57.5153L55.469 57.6006L55.9635 58.0099L56.2023 58.2998L56.4069 58.4362L56.6968 58.5556L60.7044 59.5106L61.4036 59.7664L61.864 60.0222L62.1198 60.3462L62.171 60.3974L62.4609 60.6873L62.8361 60.9431L63.5864 61.3183L65.053 62.5291L65.7693 63.2453L65.9398 63.5352L66.0592 63.8592L67.4064 69.3675L67.5429 69.6233L67.7475 69.8791L67.918 70.0838L68.4126 70.4078L69.9133 71.2093L70.2032 71.4651L70.459 71.7891L70.5102 72.079L70.4761 72.3689L70.3567 72.6588L70.152 72.9488L69.9133 73.2046L68.3955 74.5347L67.8157 75.3192L67.4405 76.0696L66.7243 78.3206L66.4855 78.7811L66.2809 79.071L66.0762 79.2074L65.667 78.5764L65.4282 78.4059L65.1383 78.2354L64.8825 78.2012L59.6982 78.9857L58.4533 79.0198L57.8565 78.9345L57.3619 78.764L55.8612 77.6044L54.3093 77.0246L53.8489 76.7858L53.559 76.53L53.3543 75.9843L53.2179 75.6944L52.928 75.4556L52.6892 75.4215L52.5528 75.558V75.8137L52.604 76.0696L52.6381 76.3595L52.5869 76.5641L52.2629 76.7005L51.973 76.6664L51.649 76.5812L50.7281 76.1548L50.3188 76.0184H50.0289L49.739 76.0525L49.5684 76.1378L48.477 77.0246L48.1359 77.2633L47.7608 77.3486L47.505 77.2633L47.3856 77.0587V76.8029L47.4197 76.5129V76.223L47.3344 75.9672L47.1298 75.7285L46.3453 75.2339L46.1407 74.9952L46.0554 74.7564L46.0213 74.5177L46.0554 74.3983V74.2789L46.0213 74.1084L45.9019 73.9038L45.6973 73.7673L45.4415 73.648L45.1516 73.6138L43.9067 73.5627L43.361 73.4774L43.0199 73.2728L42.73 73.034L42.0308 71.9767L41.775 71.4822L41.5362 70.9023L41.1952 69.6404L41.0758 69.4016L40.9052 69.1458L40.5812 68.9071L40.3425 68.8218L40.1037 68.8559L37.7674 70.1179L37.5116 70.2031L37.2217 70.2543L36.9318 70.2202L36.4202 70.1349L36.045 69.9985L35.0047 69.3334L34.4249 69.0776L34.0497 69.0264H33.7087L33.4529 69.1117L30.2638 70.6295L28.8314 70.9705L28.5755 71.107L28.3368 71.3116L28.2856 71.5504L28.3368 71.7891L28.5414 71.9255L28.7972 71.9597L29.5988 71.8232L29.8375 71.7891L30.008 71.8232L30.2127 71.9085L30.4514 72.0449L30.622 72.2496L30.7413 72.4201L30.8607 72.6759L31.0313 73.5115L31.0654 73.8867L31.0313 74.6712L30.7755 76.5471L30.8096 77.1439L30.8607 77.4679L30.946 77.792L31.0654 78.0819L31.2359 78.3718L31.4405 78.6276L31.6963 78.8834L31.9863 79.088L32.2762 79.2074L33.7087 79.6337L33.9645 79.7702L34.2032 80.026L34.3226 80.35L34.3567 80.6911L34.2714 80.981L34.1862 81.2197L33.4358 82.4646L33.1971 83.0444L33.1459 83.3344L33.1118 83.6243L33.1459 83.9142L33.2312 84.2041L33.9474 85.6366L34.1179 86.2164L34.2544 86.7962L34.3055 87.035L34.4249 87.2055L34.5954 87.1543L35.0559 86.7792L35.3117 86.6939L35.6016 86.728L37.8186 88.0241L38.0232 88.1605L38.0744 88.2458L38.1255 88.2799L38.2961 89.0643L38.4154 89.3543L38.5519 89.6101L38.7906 89.9L40.4107 91.2472L40.6494 91.503L40.82 91.7588L41.0246 92.1681L41.3998 93.2083L41.8261 94.8796L41.9455 95.1695L41.9796 95.2036L42.0649 95.2377L42.2695 95.2889L43.054 95.34L43.3098 95.3741L43.4803 95.4935L43.6509 95.6299L43.7361 95.8857L43.7702 96.1416L43.3098 99.2794L43.4803 103.799L43.4292 104.003L43.3098 104.259L43.054 104.6L42.7641 104.839L42.4742 104.975L42.1502 105.026L41.5533 104.992L41.0076 104.873H40.7177L40.4619 104.907L40.1719 105.078L39.9161 105.368L39.5751 105.794L39.2852 106.084L38.9611 106.288L38.6712 106.408L38.4154 106.493L37.9209 106.544H36.9147L36.6589 106.595L36.4031 106.715L36.1985 106.953L36.062 107.192L35.9768 107.448L35.8404 108.25L35.8062 108.335L35.0218 107.175L34.2373 106.118L33.8962 105.623L33.8621 105.248L33.9133 105.129V105.009L33.8792 104.873L33.8451 104.788L33.7598 104.737L33.5893 104.907H33.4699L33.2312 104.788L33.0947 104.549L32.856 104.054H33.18L33.4699 104.106H33.7598L34.0497 103.986L34.2203 103.747V103.048L34.5102 102.468L34.4761 102.179L34.2203 101.599L34.1691 101.258L34.2203 100.456V100.132L34.135 99.8422L34.0497 99.5864L33.9133 99.3306L33.6575 99.0407L33.5211 98.9042L33.4017 98.819L33.2823 98.6996L33.1629 98.4438L33.0436 98.3585L32.7878 98.1539L32.549 97.864L32.3444 97.574L32.1738 97.25L32.1397 97.1136L32.1056 96.7896L32.0715 96.6702L32.0204 96.5508L31.8157 96.3462L31.7646 96.2098L31.9692 96.0733L31.7987 95.7493L31.253 95.1695L31.1677 94.999L30.963 94.4191L30.8778 94.2998L30.7413 94.1804L30.6561 94.1292V93.8734L30.622 93.7882L30.5026 93.6517L30.3321 93.2425L30.2468 93.106L30.0763 92.9867L29.7011 92.8161L29.5647 92.7308L29.0701 91.9464L28.7461 91.5371L28.4903 91.503L28.4562 91.6735L28.5414 91.81L28.5755 91.9464L28.4391 92.0317L28.3027 91.9805L27.9275 91.7247L27.7229 91.6735L27.6035 91.5883L27.3477 91.2472L27.2624 91.1108L27.2283 91.0255L27.2624 90.7356L27.2283 90.6503L27.0919 90.6162L27.0066 90.5309L26.8702 90.1899L26.8361 89.8659L26.9555 89.5418L27.2113 89.2519L27.3818 88.962L27.433 88.5868L27.3818 88.1776L27.2624 87.8535L26.9725 87.5295L26.5632 87.3249L26.1369 87.2055L25.7276 87.1714L25.2672 87.0009L24.9773 86.6257L24.1757 84.7327L23.8858 84.2723L23.3742 83.5219L22.4533 81.2538L21.4813 79.4973L20.8844 78.7128L20.1682 78.0819L19.8441 77.7067L19.6395 77.1098L19.2643 76.4447L19.0085 75.575L18.8039 75.6262L18.6333 75.4897L18.3093 74.9952L17.5078 74.2789L16.5358 72.9829L16.1947 72.2837L16.1435 72.1643V72.0279L16.1776 71.9085L16.297 71.7039L16.3311 71.5845L16.28 71.4139L15.9559 70.9876L14.9157 69.7256L14.3359 69.3164L14.1653 69.1799L13.8754 68.8389L13.5343 68.2931L13.1592 67.918L12.6987 67.0312L12.5623 66.6901L12.5282 66.4002L12.4941 65.8886L12.4429 65.6328L12.3235 65.4623L11.9143 65.0018L11.6755 64.6266L11.3515 63.791L11.0957 63.4158L10.9763 63.3306L10.7205 63.2453L10.6352 63.1941L10.5841 63.0748L10.5329 62.9042L10.3965 62.6143L10.3453 62.2391L10.226 62.0345L9.59498 61.2842L9.39033 60.9431L9.27096 60.8237L9.06632 60.7043L8.46944 60.2439V60.3292H8.38418L8.2648 60.1586L8.40123 60.0222L8.69114 59.8858L8.89578 59.7664L9.03221 59.8175L8.9981 59.7323L8.87873 59.5276L8.82757 59.4935L8.4865 59.4083L8.36712 59.3571H8.28186V59.4765H8.23069L8.17953 59.3912L8.09427 59.2718L8.009 59.2207L7.92373 59.1866H7.59971L7.42918 59.016L6.84936 58.6067L6.72998 58.692H6.44007L6.49123 58.7432L6.52534 58.8284L6.5765 58.8796L6.45713 58.7943L6.3207 58.7091L6.18427 58.6579L6.04784 58.7432L5.92847 58.8284L5.51918 58.9478L5.43392 58.999L5.34865 59.0501L5.31454 59.1695H5.22927V59.0501H5.14401L4.97347 59.1013L4.71767 59.0501H4.47892L4.30838 59.2548L4.25722 59.2036L4.20606 59.1695V59.0501H4.32544V58.9649L4.27428 58.8455L4.32544 58.7943L4.44481 58.7091L4.56419 58.675L4.44481 58.6238H4.18901L4.06963 58.675V58.7602H4.1549V58.8796L4.01847 58.9137L3.93321 59.0331L3.81383 59.2718L3.76267 59.2207H3.72856L3.69446 59.1866H3.6433L3.69446 59.1013L3.74562 59.016L3.86499 58.9649L3.98437 58.9137V58.7091H3.81383L3.6774 58.7432L3.59214 58.8284L3.55803 58.999L3.50687 58.9478H3.47276L3.43865 58.9819L3.38749 59.016V58.8114H3.33633V58.9308H3.21696L3.1658 58.8114L3.11464 58.7261L3.06348 58.7602L2.97821 58.8114L2.85883 58.7261L2.82473 58.692L2.77357 58.5726L2.72241 58.5215L2.63714 58.3509L2.60303 58.3851L2.56892 58.4192L2.51776 58.4703L2.4666 58.5215L2.33017 58.4021L2.27901 58.4533V58.5897L2.22785 58.7091L2.14259 58.7602L1.97205 58.8455L1.92089 58.8967V58.9819L2.17669 59.1866V59.2718L2.09143 59.3059H2.05732L2.02321 59.34L1.9891 59.3742L1.90384 59.2889L1.85268 59.5447L1.81857 59.7152L1.7333 59.8346L1.4775 59.8687L1.51161 59.8175H1.54571L1.57982 59.7834L1.49455 59.6641L1.44339 59.4594L1.40928 59.2889V58.9478L1.32402 58.8625L1 58.9819L1.05116 58.8114L1 58.7261L1.17054 58.4703L1.28991 58.3509L1.40928 58.2998V58.2486L1.49455 58.2145L1.57982 58.0951L1.66509 58.061L1.57982 57.9417L1.61393 57.8905L1.66509 57.8393L1.71625 57.7882H1.83562V57.8393H1.78446L1.75036 57.8734L1.86973 57.9246L1.9891 57.9587L2.04027 57.9246L2.09143 57.7882H2.00616V57.6688L1.92089 57.5835L1.955 57.4983L2.04027 57.413L2.17669 57.3789V57.2936L2.12553 57.1572L2.24491 56.5262L2.29607 56.5603L2.38134 56.5944L2.4325 56.6285L2.39839 56.5944L2.4325 56.458L2.34723 56.4921L2.31312 56.5262L2.22785 56.4751L2.48366 56.2193L2.73946 55.7588L2.9441 55.2472L3.06348 54.5821L3.31928 54.2069L3.40455 53.7977L3.48981 53.5419L3.83088 52.945L3.74562 52.314L3.71151 51.6489L3.50687 50.9838L3.74562 50.1141L3.91615 49.6536L4.12079 49.2785V49.1932H4.03553L4.24017 48.8521L4.27428 48.6816L4.22312 48.5111V48.4258L4.35954 47.9995L4.32544 47.8801V47.8971ZM31.4746 96.3121L31.594 96.4315L31.6452 96.4826H31.6111L31.5599 96.4485H31.4746V96.4997L31.5258 96.5849L31.4064 96.5508L31.1677 96.4144L31.0824 96.278L31.1165 96.1586H30.9971L30.8607 96.2098L30.7755 96.0904L30.7243 95.8857H30.6049L30.4685 95.971L30.4344 95.8857L30.5196 95.6299L30.639 95.4935H30.8096L30.9801 95.5276L31.1165 95.6129L31.2359 95.9028L31.3212 95.8687L31.3553 95.7834L31.3894 95.8346L31.4746 96.295V96.3121ZM30.4173 96.3462L30.622 96.3121L30.6561 96.3633L30.4514 96.4997L30.3321 96.5508L30.2127 96.7214L30.0763 96.9601L29.9057 97.0966L29.6499 96.926L29.4112 96.6702L29.1724 96.4997L28.6608 95.954L28.6267 95.9199L28.5926 95.8346V95.7834L28.6267 95.7493V95.6982L28.4903 95.5617L28.3539 95.3571L28.388 95.2377L28.5073 95.2718L28.6267 95.3912L28.8655 95.6811L28.9848 95.7664L29.2236 95.8857L29.6499 96.0904L29.8546 96.1416H30.0251L30.1445 96.2268L30.1956 96.3121H29.9398L29.8887 96.5167L30.008 96.6532L30.1445 96.6191L30.2809 96.4485L30.4514 96.3291L30.4173 96.3462ZM29.2577 94.7602L29.1383 94.7091L28.9678 94.5726L29.0019 94.368L29.1724 94.2486L29.343 94.2827L29.4623 94.4191V94.5897L29.343 94.7091L29.2577 94.7602ZM28.5414 95.2548L28.405 95.1354H28.3539L28.3027 95.1013L28.2515 95.016V94.8796L28.1322 94.8455L27.9616 94.8114L27.9275 94.7602L27.9787 94.7943L27.9446 94.7091L27.8252 94.5726L27.6547 94.4533H27.4159L27.3306 94.5385L27.2795 94.5726L27.1601 94.6067L27.1942 94.4874L27.3136 94.2827L27.5182 94.2486L27.757 94.2998L28.3539 94.7261L28.405 94.8114L28.4903 94.9819L28.6608 95.1013L28.8655 95.1524L29.1554 95.323L29.5817 95.6982L29.7011 95.8175L29.667 95.8687L29.6158 95.9199L29.6499 95.971L29.5988 95.9199L29.3941 95.7834L29.2236 95.6982L29.1042 95.647L29.053 95.5617L29.0019 95.4253L28.8825 95.3741L28.7972 95.4083L28.6779 95.3741L28.5585 95.2548H28.5414ZM29.8887 94.5385V94.1292L29.8546 94.044V93.9075L29.9398 93.7882L30.0592 93.7541L30.1786 93.7882L30.2297 93.9246V94.044L30.1956 94.1633H30.1445L30.0592 94.1122V94.1463L30.0933 94.2316V94.2827H30.0592L30.1445 94.4533L30.2297 94.8284L30.1786 94.9478L30.0422 94.7432L29.9569 94.692L29.9057 94.5556L29.8887 94.5385ZM27.1772 94.2145V94.2998L27.0919 94.4362L27.0066 94.5215L26.9214 94.4703L26.7508 94.3509L25.7788 93.8393L25.4889 93.7882L25.4036 93.9928L25.2842 93.9416L25.0455 93.7029L24.8749 93.4983L24.8238 93.2083L24.909 92.9696L25.2331 92.6456L25.3695 92.475L25.4548 92.4239L25.4889 92.5092L25.4036 92.6456L25.199 92.9696L25.2331 93.089L25.3183 93.2083L25.4036 93.2936H25.4548L25.5059 93.3277L25.5912 93.413L25.6764 93.4642L25.7958 93.4983L26.1198 93.8393L26.2563 93.9587H26.4268L26.5462 93.9246L26.5803 93.9758V94.061L26.6314 94.1804L26.7508 94.2316L26.8702 94.1975L26.8361 94.1633V94.1122L26.8872 94.061L27.0066 94.0951L27.1772 94.2145ZM25.4548 92.0317V91.9123L25.4206 91.6224L25.4548 91.0425L25.6594 90.5821L25.9493 90.2581L26.0346 90.224L25.8981 90.3945L25.7617 90.5992L25.6423 90.8379L25.6082 91.1278L25.7276 91.3666L25.9664 91.6053L26.0516 91.6394L26.171 91.6735L26.1369 91.7588L26.0516 91.9293L26.0005 92.134L26.0346 92.1851V92.2704L26.1539 92.3557L26.2904 92.3045L26.3245 92.3386L26.2733 92.458L26.1539 92.5433L25.9834 92.5092L25.7276 92.3045L25.6082 92.1851L25.4889 92.0487L25.4548 92.0317Z" fill="#57585B" stroke="#878F92" stroke-width="0.5" stroke-linecap="round" stroke-linejoin="round"></path><path d="M35.8917 108.369L35.9258 108.284L36.0622 107.482L36.1475 107.226L36.2839 106.988L36.4886 106.749L36.7444 106.63L37.0002 106.578H38.0063L38.5009 106.527L38.7567 106.442L39.0466 106.323L39.3706 106.118L39.6605 105.828L40.0016 105.402L40.2574 105.112L40.5473 104.941L40.8031 104.907H41.093L41.6387 105.026L42.2356 105.061L42.5596 105.009L42.8495 104.873L43.1394 104.634L43.3953 104.293L43.5146 104.037L43.5658 103.833L43.3953 99.3136L43.8557 96.1757L43.8216 95.9199L43.7363 95.6641L43.5658 95.5277L43.3953 95.4083L43.1394 95.3742L42.355 95.323L42.1503 95.2719L42.0651 95.2378L42.031 95.2037L41.9116 94.9137L41.4853 93.2425L41.1101 92.2022L40.9054 91.793L40.7349 91.5371L40.4962 91.2813L38.8761 89.9341L38.6373 89.6442L38.5009 89.3884L38.3815 89.0985L38.211 88.314L38.1598 88.2799L38.1087 88.1947L37.904 88.0582L35.6871 86.7622L35.3971 86.7281L35.1413 86.8133L34.6809 87.1885L34.5104 87.2397L34.391 87.0691L34.3398 86.8304L34.2034 86.2506L34.0329 85.6707L33.3166 84.2382L33.2313 83.9483L33.1972 83.6584L33.2313 83.3685L33.2825 83.0786L33.5213 82.4988L34.2716 81.2539L34.3569 81.0151L34.4422 80.7252L34.408 80.3841L34.2887 80.0601L34.0499 79.8043L33.7941 79.6679L32.3616 79.2416L32.0717 79.1222L31.7818 78.9175L31.526 78.6617L31.3214 78.4059L31.1508 78.116L31.0314 77.8261L30.9462 77.5021L30.895 77.1781L30.8609 76.5812L31.1167 74.7053L31.1508 73.9209L31.1167 73.5457L30.9462 72.7101L30.8268 72.4543L30.7074 72.2837L30.5369 72.0791L30.2981 71.9426L30.0935 71.8574L29.923 71.8233L29.6842 71.8574L28.8827 71.9938L28.6269 71.9597L28.4223 71.8233L28.3711 71.5845L28.4223 71.3458L28.661 71.1411L28.9168 71.0047L30.3493 70.6636L33.5383 69.1459L33.7941 69.0606H34.1352L34.5104 69.1118L35.0902 69.3676L36.1304 70.0326L36.5056 70.1691L37.0172 70.2543L37.3071 70.2885L37.5971 70.2373L37.8529 70.152L40.1892 68.8901L40.4279 68.856L40.6667 68.9412L40.9907 69.18L41.1612 69.4358L41.2806 69.6745L41.6217 70.9365L41.8604 71.5163L42.1162 72.0109L42.8154 73.0682L43.1053 73.3069L43.4464 73.5116L43.9921 73.5968L45.237 73.648L45.5269 73.6821L45.7827 73.8015L45.9874 73.9379L46.1068 74.1425L46.1409 74.3131V74.4325L46.1068 74.5518L46.1409 74.7906L46.2261 75.0293L46.4308 75.2681L47.2152 75.7626L47.4199 76.0014L47.5052 76.2572V76.5471L47.471 76.837V77.0928L47.5904 77.2975L47.8462 77.3827L48.2214 77.2975L48.5625 77.0587L49.6539 76.1719L49.8244 76.0866L50.1143 76.0525H50.4042L50.8135 76.189L51.7344 76.6153L52.0584 76.7006L52.3484 76.7347L52.6724 76.5983L52.7235 76.3936L52.6894 76.1037L52.6383 75.8479V75.5921L52.7747 75.4557L53.0134 75.4898L53.3033 75.7285L53.4398 76.0184L53.6444 76.5642L53.9343 76.82L54.3948 77.0587L55.9466 77.6385L57.4474 78.7982L57.9419 78.9687L58.5388 79.054L59.7837 79.0199L64.968 78.2354L65.2238 78.2695L65.5137 78.44L65.7524 78.6106L66.1617 79.2416L66.4005 79.8214L66.4516 80.1113L66.4857 80.4524V80.7764L66.3663 81.2709L66.3152 81.4415L65.8889 82.2771L65.7183 82.6864L65.7524 83.0274L65.8718 83.3173L66.1276 83.5561L66.3834 83.6414L66.6733 83.6755L67.2531 83.5561H67.5771L67.833 83.7948L67.9523 84.0848L67.9864 84.3747L67.2872 89.0473V89.4566L67.3384 89.7977L67.7136 91.3154L67.9523 92.6968L67.833 96.3462L67.8841 96.7214L68.0205 97.0454L68.1911 97.3012L68.3957 97.5059L68.5321 97.6253L68.7709 97.7446L69.0267 97.8299L69.3166 97.864H69.6065L69.8964 97.8128L72.9831 96.7214L73.6141 96.6362L75.0807 96.6703L75.6264 96.6191L75.8822 96.5679L76.121 96.5168L76.2915 96.4315L76.5302 96.3121L76.769 96.1416L77.0248 95.9029L77.9116 94.7432L78.2015 94.4874L78.5426 94.2828L78.9689 94.1463L79.31 94.0611L81.4417 93.9758L84.9206 94.5215L85.9779 94.8114L86.3019 94.9308L87.9391 95.3401L88.4848 95.5106L88.7235 95.6812L88.9282 95.937L89.0134 96.278L89.0646 96.602L88.8088 100.166L88.86 100.49L88.9793 100.814L89.2181 101.189L89.508 101.428L89.7979 101.565L91.418 101.991L91.6226 102.076L91.742 102.196L91.7761 102.23L92.0149 102.605L92.2195 103.116L92.8846 105.709L93.1233 106.254L93.2939 106.51L93.4985 106.715L94.5558 107.516L94.5899 107.977L94.4194 108.574L94.283 108.983L94.2489 109.034L93.669 109.784L93.4644 110.108L93.3791 110.347V110.552L93.4132 110.637L93.5838 111.098V111.422L93.5497 111.933L93.3109 112.973L93.1745 115.31L93.2086 116.555L91.5885 116.316L90.787 116.35L90.4971 116.486L90.2583 116.657L90.0878 116.913L90.0366 117.169L90.0707 117.459L90.3948 118.345L90.4459 118.635L90.48 118.925L90.4459 119.522L90.3607 119.846L90.1901 120.221L89.8661 120.716L89.5421 121.04L89.2522 121.278L87.0352 122.251L85.4151 123.137L84.8694 123.564L84.4943 123.973L84.3578 124.297L84.4431 124.587L84.6818 124.826L84.9376 125.03L86.2849 125.781L86.4895 126.019L86.5748 126.309L86.4384 126.684L86.1996 126.94L85.9097 127.111L84.4772 127.622L84.1361 127.861L83.761 128.185L82.0385 129.942L78.4914 132.738L77.9969 133.318L77.1101 134.7L76.7861 135.041L76.4961 135.16L76.1721 135.194L74.2792 134.597L73.9552 134.563L73.58 134.648L73.0684 134.972L71.8064 136.03L71.5506 136.2H71.4995L71.1754 136.286L70.9196 136.32H70.6297L69.8282 136.2H69.7771L69.5212 136.03L69.3848 135.791L69.3337 135.535L69.3848 135.279L69.5042 134.734L69.5895 134.154L69.5554 133.864L69.5042 133.574L69.3848 133.284L69.1802 133.028L68.9414 132.824L68.7027 132.653L68.3275 132.449L67.4919 132.193L67.2531 132.073L67.0826 131.869L67.0485 131.613L67.0997 131.323L67.7988 129.703L67.85 129.447L67.9353 128.816V128.407L67.8841 128.151L67.7988 127.895L67.6624 127.657L67.4237 127.452L67.1679 127.401L66.9121 127.367L65.7354 127.503L63.0921 128.339L62.1371 128.509L61.8472 128.39L61.7278 128.151L61.6766 127.605L61.6255 127.35L61.5061 127.111L61.2503 126.974H60.9092L59.579 127.213L59.0845 127.247L58.6582 127.196L58.3682 126.991L58.0783 126.753L57.1233 125.593L56.1172 124.706L55.9466 124.536L55.435 123.7L55.1792 123.461L54.8552 123.342L54.48 123.376L53.6103 123.581L52.0584 123.7L51.6492 123.751L51.6151 123.461L51.5809 123.086L51.4957 122.796L51.4616 122.54L51.2569 122.336L51.1717 122.199L51.1205 121.961V121.722L50.8306 121.892L50.7112 121.807H50.5918L50.6259 122.046L50.7453 122.165L51.0693 122.285V122.37L50.643 122.336L50.3872 122.08L50.3531 121.415L49.8074 120.699L49.5175 119.778L49.4322 119.454L49.381 119.113L49.2958 118.789L49.0911 118.55L48.9718 118.499L48.8353 118.465L48.6307 118.379L48.5113 118.243L48.4601 118.072L48.3749 117.817L48.2043 117.646L47.9997 117.561L47.7951 117.51L47.6245 117.424L47.5052 117.339L47.3858 117.1L47.1811 116.862L47.0618 116.776L46.8571 116.64L46.6184 116.555L46.3796 116.521L46.0897 116.316L45.9533 116.197L45.6975 115.958L45.4587 115.634L45.2029 115.463L44.9983 115.259L44.6231 114.883L44.5037 114.832H44.4185L44.2991 114.866L44.1797 114.952L43.9239 114.747L43.7193 114.576L43.2077 114.252L42.8325 113.963L42.8836 113.792L43.1224 113.656L43.4123 113.604L43.2929 113.485L43.1224 113.536L42.8836 113.656L42.7643 113.485L42.9007 113.246L42.9519 113.042L42.8325 112.99L42.7472 113.076L42.5767 113.11L42.5255 113.246L42.5767 113.297L42.6278 113.434V113.604L42.6619 113.724L42.5767 113.809L42.3209 113.69L41.9457 113.809L41.3659 113.383L41.1953 113.212L40.7008 112.837L40.5814 112.547L40.445 112.428L40.2062 112.342L40.0016 112.206L39.797 112.035L39.5582 111.899H39.2683L39.1319 111.865L38.9272 112.001L38.8931 112.206L38.9443 112.462L38.4327 112.496L38.2962 112.291L37.9552 112.121L37.6653 112.206L37.3754 111.916L37.2048 111.592L36.949 111.217L36.4886 110.842L36.3521 110.381L36.4886 110.091L36.5738 110.125L36.8126 110.296L36.932 110.057L36.8467 109.819L35.9258 108.471L35.8917 108.369Z" fill="#57585B" stroke="#878F92" stroke-width="0.5" stroke-linecap="round" stroke-linejoin="round"></path><path d="M89.542 172.047L90.0877 171.808L90.5993 171.774L90.8551 171.808L91.0256 171.893L91.1621 172.013L91.3667 172.252L91.5031 172.507L91.5884 172.797V173.053L91.5543 173.309L91.1791 175.031V175.355L91.2132 175.696L91.2644 175.952L91.776 176.839L91.8613 177.163V177.487L91.4349 178.834L91.3155 179.09L91.145 179.329L90.9063 179.499L90.6675 179.585L90.497 179.636H90.3264L88.9451 179.499H88.6552L88.3994 179.55L88.1095 179.636L87.5638 179.96L86.9328 180.454L86.694 180.574L86.4553 180.54L86.1995 180.42L85.9948 180.25L85.7902 180.164L85.6708 180.284L85.6367 180.54L85.5515 183.592L85.6026 184.138L85.6879 184.394L85.7732 184.684L85.9096 184.939L86.1483 185.144L86.3871 185.28L86.6429 185.332H87.9901L88.5017 185.366L89.0474 185.485L89.3032 185.57L89.542 185.707L89.7466 185.911L89.8831 186.167L90.7528 188.759L90.838 189.169V189.51L90.7869 189.851L90.3605 191.522L90.1218 192.034L89.9854 192.238L89.7466 192.477L88.9622 192.903L88.7234 193.04L88.5188 193.279L88.3994 193.517L88.1606 194.063L88.0242 193.858L87.939 193.722L87.9048 193.551L87.8537 193.5L87.7343 193.449L87.649 193.398L87.7002 193.193L87.4614 193.159L87.2057 193.074L87.2568 193.023V192.989L87.2909 192.954L87.3762 192.903L87.2909 192.767L87.1715 192.682H87.0351L86.8646 192.733L86.9498 192.613L87.001 192.477L87.0351 192.358L86.9498 192.272L87.0351 192.102L86.9498 192.017L86.8134 191.982L86.6088 192.017L86.6429 191.846L86.6088 191.59L86.5235 191.334L86.4041 191.164L86.353 191.027L86.2677 190.533L86.2336 190.414L86.1995 190.294L86.1654 189.595L86.1313 189.51L86.0972 189.459L86.046 189.424H85.9607L85.9096 189.373L85.8755 189.254V189.135L85.8414 189.049L85.3809 188.725L85.3298 188.64L85.2957 188.504L85.2445 188.367L85.1592 188.231L84.9546 188.145L84.9034 188.094L84.8523 188.043L84.8182 188.009L84.7329 188.043L84.6135 188.162L84.5623 188.197L84.4259 188.145L84.3065 188.06L84.1701 187.975L84.0849 187.838L83.7438 187.122L83.6074 186.918L83.4709 186.747L83.3857 186.576V186.406L83.4198 186.15L83.7097 185.28L83.7608 185.025L83.7949 184.939L83.8461 184.888L83.8802 184.803L83.7608 184.632L83.7097 184.598L83.4198 184.462L82.9082 184.325L82.7888 183.916V183.831L82.533 183.507L82.4818 183.473V183.336L82.5159 183.2L82.5671 182.944L82.6182 182.808L82.6694 182.688L82.7206 182.603L82.7547 182.364L82.8058 182.074L82.9764 181.75L82.857 181.546L82.6182 181.409L82.3624 181.29L81.8508 181.153L81.6121 180.983L81.4927 180.642L81.2881 180.352L81.254 180.233V180.096L81.3392 179.772V179.653L81.254 179.397V179.278L81.2028 179.158L80.9641 179.022L80.9129 178.902L80.8617 178.647L80.7424 178.51L80.5377 178.391L80.1967 178.135L80.2308 178.084L80.2649 177.947L80.2308 177.811L80.0943 177.606L80.0602 177.487V177.351L79.975 177.146L80.0091 177.009L80.0943 176.873L80.2137 176.788L80.2649 176.668L80.1796 176.583L80.2137 176.447L80.1796 176.31L80.0943 176.191L80.0602 176.02L79.02 175.645L78.6959 175.509L78.065 174.844L77.775 174.673V174.588L77.9115 174.622L78.2014 174.792L78.2526 174.247L78.2184 173.582L78.1332 173.292L77.5534 172.456L77.3146 172.32L76.6836 172.234H76.4278L76.3084 172.371L76.4449 172.695L76.2743 172.558L76.1038 172.269L76.0185 172.013L75.9844 171.893L75.8139 171.774L75.3023 171.024L74.9271 170.785L74.8418 170.7L74.876 170.614L75.0124 170.273L74.9271 170.018L74.7907 169.881L74.4155 169.745L73.9551 169.455L73.8357 169.404L73.7163 169.233L73.5969 169.199L73.4776 169.114L73.1877 168.687L73.0683 168.653L72.7784 168.568L72.659 168.534L72.4202 168.483L72.1644 168.346L71.5846 167.886L71.1583 167.391L71.2436 167.187L71.0389 167.05L70.6978 166.965L70.3227 166.914L70.2374 166.828L70.118 166.692L69.9475 166.487L69.8281 166.368V166.317L69.7087 166.232L69.2994 165.856L69.0948 165.771H68.8049L68.515 165.822L68.2592 165.908L68.1398 166.027L67.8499 165.908L67.3383 165.584L67.0484 165.464V165.635L67.1337 165.72L67.253 165.771L67.3383 165.891L67.3895 165.925L67.5088 165.976L67.5941 166.061L67.5088 166.112L67.3042 166.061L66.0593 165.311L65.8887 165.14L65.7523 165.089L65.4965 165.004L65.2578 164.884L65.0872 164.509L64.8485 164.27L64.1834 163.759L63.8423 163.418L63.1261 162.241L62.8703 162.036V161.917H63.109L63.1602 161.866L63.2113 161.747L63.0067 161.712L62.8703 161.593L62.5804 161.337L62.4951 161.201L62.4098 160.792L62.3587 160.655L61.9494 160.195L61.9153 159.956L62.1199 159.632L61.6936 159.495L61.523 159.461L61.5571 159.581L61.6083 159.632L61.6595 159.683L61.7447 159.734L61.506 159.649L61.2161 159.478L61.0797 159.274L61.1649 159.069L61.0455 159.018L60.9944 158.933V158.847L61.0797 158.728L61.1308 158.813L61.2161 158.899L61.3355 158.95L61.506 158.984L61.4548 158.847L61.4207 158.762V158.677L61.3866 158.558H61.3355L61.2502 158.592L61.1649 158.54L60.9944 158.302H60.9432L60.9091 158.54L60.6533 158.37L60.2781 158.114L60.0394 157.773V157.449L60.0905 157.534L60.1758 157.62L60.2611 157.654L60.2952 157.568L60.2611 157.398L60.1758 157.347L60.0905 157.313L60.0053 157.261L59.8859 157.21H59.7495L59.6301 157.261L59.4937 157.296V157.244L59.1526 156.733L59.0673 156.528L59.0332 156.289V155.965L58.9991 155.846L58.8286 155.727L58.7774 155.59V155.454L58.7263 155.403L58.641 155.369L58.1294 154.993L57.993 154.857L57.9418 154.482L57.8224 154.226L57.7883 154.09L57.8224 154.004L57.9418 153.834L57.9759 153.748L57.8906 153.578L57.3961 152.862L57.2597 152.742L56.8504 152.111L57.8224 151.242L57.9589 150.918L57.993 150.491L57.8736 150.116L57.703 149.911V149.826L57.8224 149.707V149.536L57.6178 149.11L57.4472 149.366L57.3279 149.417L57.2085 149.246L57.0891 148.991L57.1744 148.905L56.9698 148.615L56.9186 148.206L56.9527 147.797L56.9186 147.422L56.7992 147.081V146.876L57.055 146.791L57.1062 146.705L57.1573 146.535V146.296L57.0721 146.16L56.9868 146.415L56.9015 146.552L56.8163 146.603H56.6457L56.6116 146.552V146.432L56.5605 146.313L56.4752 146.262L56.4411 146.211L56.3899 146.16L56.3388 146.074L56.2876 145.938V145.733L56.2365 145.614L56.1 145.529L56.0659 145.477L56.0148 145.358V145.324L55.5884 144.778L55.2132 143.994L55.0086 142.834V142.578L55.3497 142.459L55.6737 142.885H55.9295L55.9806 142.595V142.34L56.0148 142.203L56.0489 142.152L56.2194 142.033L56.2535 141.982L56.2876 141.726L56.407 141.18L56.4411 140.924H56.3899L56.1853 141.385L56.1341 141.18L56.1682 141.044L56.2535 140.907L56.2876 140.702V140.157L56.407 139.782L56.8163 139.321L56.9356 138.741L57.0209 138.605L57.1403 138.52L57.2597 138.383L57.4302 138.008L57.6348 137.769L57.686 137.718V137.548L57.6007 137.411L57.4814 137.326L57.3449 137.36L57.2597 137.496L57.1744 137.872L57.0891 138.008L56.7992 138.059L56.7651 137.65L56.9356 137.104L56.8163 136.354L56.9015 135.603L56.8163 135.228L56.731 135.058L56.3899 134.597L56.0659 133.847L55.8101 133.438L55.7248 133.199L55.7589 133.063L56.1 132.739L56.0659 132.619L55.469 131.954L55.2303 131.749L55.1109 131.801L55.145 131.886L55.3838 132.125L55.469 132.244L55.5031 132.38L55.5373 132.517L55.5714 132.653L55.6566 132.773L55.5714 132.892L55.4008 132.483L55.0598 131.971L54.7187 131.596L54.0877 130.419V130.249L54.4629 130.453L54.8722 131.34L55.0768 131.391L55.2132 131.477L55.3326 131.442L55.4179 131.357L55.5031 131.221L55.3667 131.05L55.1621 130.641L55.0427 130.556L54.9574 130.522L54.8381 130.436L54.7528 130.3L54.7187 130.163L54.5993 129.925L54.3606 129.839L54.0706 129.754L53.866 129.635L53.6102 129.686L53.4397 129.481L53.1839 128.901L53.3203 128.765L53.4056 128.594L53.4908 128.39L53.5249 128.185L53.4908 127.81L53.4397 127.605L53.4056 127.435L53.2691 127.384L53.1498 127.588L53.0133 127.264L52.7746 126.974L52.5358 126.548L52.3312 126.258L52.2118 125.968L52.0754 125.764L52.0413 125.593L51.9219 125.337V125.167L51.8366 124.757L51.6661 124.433L51.5297 124.024L51.4785 123.768L51.8878 123.717L53.4397 123.598L54.3094 123.393L54.6846 123.359L55.0086 123.478L55.2644 123.717L55.776 124.553L55.9465 124.723L56.9527 125.61L57.9077 126.77L58.1976 127.009L58.4875 127.213L58.9139 127.264L59.4084 127.23L60.7386 126.991H61.0797L61.3355 127.128L61.4548 127.367L61.506 127.622L61.5571 128.168L61.6765 128.407L61.9664 128.526L62.9214 128.356L65.5647 127.52L66.7414 127.384L66.9972 127.418L67.253 127.469L67.4918 127.674L67.6282 127.912L67.7135 128.168L67.7646 128.424V128.833L67.6794 129.464L67.6282 129.72L66.929 131.34L66.8778 131.63L66.912 131.886L67.0825 132.09L67.3212 132.21L68.1569 132.466L68.532 132.67L68.7708 132.841L69.0095 133.045L69.2142 133.301L69.3336 133.591L69.3847 133.881L69.4188 134.171L69.3336 134.751L69.2142 135.297L69.163 135.552L69.2142 135.808L69.3506 136.047L69.6064 136.217H69.6576L70.4591 136.337H70.749L71.0048 136.303L71.3288 136.217H71.38L71.6358 136.047L72.8977 134.99L73.4093 134.666L73.7845 134.58L74.1085 134.614L76.0015 135.211L76.3255 135.177L76.6154 135.058L76.9394 134.717L77.8262 133.335L78.3208 132.756L81.8679 129.959L83.5903 128.202L83.9655 127.878L84.3065 127.64L85.739 127.128L86.029 126.957L86.2677 126.702L86.4041 126.326L86.3189 126.036L86.1142 125.798L84.767 125.047L84.5112 124.843L84.2724 124.604L84.1872 124.314L84.3236 123.99L84.6988 123.581L85.2445 123.154L86.8646 122.268L89.0815 121.296L89.3714 121.057L89.6955 120.733L90.0195 120.238L90.19 119.863L90.2753 119.539L90.3094 118.942L90.2753 118.652L90.2241 118.362L89.9001 117.476L89.866 117.186L89.9172 116.93L90.0877 116.674L90.3264 116.504L90.6164 116.367L91.4179 116.333L93.038 116.572L92.9186 117.868L92.9527 118.738L93.038 118.993L93.1744 119.198L93.3108 119.317L93.7713 119.607L94.0271 119.812L94.2829 120.068L94.5216 120.494L95.1867 122.626L95.5107 123.342L95.6301 123.683L96.0053 125.61L97.5912 129.447L97.7277 129.618L97.8982 129.822L98.137 130.027L98.3928 130.198L98.6827 130.317L98.9385 130.402L99.3989 130.487L101.326 130.453L104.037 130.692L104.583 130.811L104.907 130.931L105.197 131.067L105.538 131.357L105.709 131.647L105.76 131.937L105.709 132.176L105.538 132.756L105.453 134.137L105.487 134.461L105.572 134.802L105.828 135.314L106.084 135.552L106.374 135.723L106.92 135.928L107.209 135.962L107.499 135.928L108.966 135.518L109.222 135.467L109.512 135.501L110.978 135.791L111.234 135.842L111.473 135.979L111.677 136.183V136.234L111.336 138.23V138.775L111.967 143.261V143.516L111.916 143.806L111.831 144.062L111.712 144.352L111.575 144.608L111.2 145.102L111.064 145.358L110.944 145.614L110.91 145.87L111.081 148.121L110.995 148.701L110.484 150.628V151.173L110.569 151.463L110.705 151.719L113.963 156.579L112.632 157.091L110.671 158.251L110.245 158.387L109.87 158.421L109.085 158.131L108.744 158.08L108.403 158.046L107.892 158.131L107.482 158.251L106.698 158.575L106.459 158.66L106.254 158.694L105.47 158.728L105.044 158.813L104.703 158.95L104.379 159.154L103.884 159.649L103.543 159.939L101.087 161.286L97.9153 164.134L97.506 164.458L96.8068 164.833L96.3975 164.953L96.0564 164.987L95.7665 164.901L95.5107 164.765L95.272 164.56L95.0673 164.27L93.8054 161.644L93.5666 161.269L92.8504 160.672L92.6116 160.587L92.2876 160.536L92.0318 160.621L90.8722 161.286L90.5822 161.405L90.3264 161.491H88.9963L88.587 161.542L88.2459 161.627L87.649 161.883L87.2739 162.002L87.0181 161.968L86.8816 161.917L86.677 161.781L86.5065 161.542L86.37 161.286L85.9948 160.195L85.7902 159.905L85.5344 159.666L85.1592 159.495L84.8352 159.461L84.5453 159.495L84.2554 159.615L84.0166 159.785L83.812 160.024L83.6926 160.229L83.6074 160.365L83.5562 160.604L83.5221 160.86L83.5562 161.15L83.6756 161.695L83.8802 162.48L83.9143 162.889V163.026L83.8291 163.367L82.9593 164.953L82.6182 165.822L82.4477 166.078L82.1578 166.334L81.8679 166.47L81.578 166.556L80.3672 166.726L79.9579 166.846L79.6339 167.016L79.3781 167.221L78.4231 168.193L78.2526 168.449L78.2184 168.704L78.2696 168.943L78.4742 169.182L78.73 169.301L79.6509 169.591L79.7021 169.625L79.8215 169.711L79.9579 169.949L80.0773 170.205L80.1625 170.495V170.785L80.0261 172.132L80.0602 172.388L80.299 173.258L80.3331 173.513L80.2478 174.605L80.2819 174.861L80.3331 175.151L80.4695 175.406L80.64 175.611L80.7765 175.696L81.7315 176.208L82.0555 176.498L82.8399 177.538L83.0958 177.777L83.3857 177.913L83.7267 177.964H84.0166L84.3065 177.93L84.5623 177.845L84.8182 177.709L85.0569 177.538L85.1933 177.282L85.2786 177.027L85.6026 175.611L86.3871 173.513L86.7281 172.934L86.8646 172.763L86.984 172.644L87.2227 172.524L87.4785 172.49H88.6381L89.0645 172.439L89.4055 172.269L89.542 172.047Z" fill="#57585B" stroke="#878F92" stroke-width="0.5" stroke-linecap="round" stroke-linejoin="round"></path><path d="M130.42 66.9631L130.556 67.0484L131.613 67.8328L132.125 68.3274L132.33 68.6173L132.5 68.9584L132.841 70.1692L132.978 70.5443L133.302 70.9195L133.557 71.1753L137.105 73.2217L137.684 73.3923L138.571 73.4775L138.861 73.5287L139.117 73.6651L139.373 73.9039L140.157 74.8589L141.334 75.9844L141.846 76.3596L142.135 76.479L142.647 76.5983L144.728 76.6495L145.273 76.7689L145.819 76.9735L146.603 77.3999L149.656 79.6168L149.946 79.7532L150.27 79.8385L150.56 79.8897H150.85L152.692 79.5486L153.016 79.5827L153.271 79.668L153.561 79.8385L155.608 81.8508L155.949 82.3624L156.188 82.6182L156.443 82.7888L160.417 84.3747L160.553 84.4941L160.724 84.6647L160.894 84.9205L161.014 85.1763L161.099 85.4321L161.15 85.8584L161.44 104.31L161.559 104.941L161.645 105.146L161.815 105.402L162.02 105.658L166.42 108.847L169.557 112.019L170.069 112.649L170.581 113.519L171.092 114.73L171.382 115.702L171.587 117.339L171.502 120.358L167.954 149.349L164.612 175.492L162.992 175.952L133.882 179.09L130.692 178.885L129.516 178.595L128.851 178.34L127.964 177.913L124.502 175.73L124.297 175.594L119.403 171.075L118.192 169.063L117.493 168.227L117.288 167.903L117.203 167.477V167.153L117.698 164.884L117.936 164.39L118.653 163.213L118.772 162.974L118.857 162.719V162.667L118.891 162.412L118.857 162.173L118.772 161.883L118.602 161.559L117.595 160.399L116.845 159.427L116.436 158.796L115.771 157.995L113.963 156.358L110.706 151.497L110.569 151.242L110.484 150.952V150.406L110.996 148.479L111.081 147.899L110.91 145.648L110.945 145.392L111.064 145.136L111.2 144.881L111.575 144.386L111.712 144.13L111.831 143.84L111.917 143.585L111.968 143.295V143.039L111.337 138.554V138.008L111.678 136.013V135.962L111.473 135.757L111.234 135.621L110.979 135.569L109.512 135.28L109.222 135.245L108.966 135.297L107.5 135.706L107.21 135.74L106.92 135.706L106.374 135.501L106.084 135.331L105.828 135.092L105.573 134.58L105.487 134.239L105.453 133.915L105.539 132.534L105.709 131.954L105.76 131.715L105.709 131.425L105.539 131.136L105.197 130.846L104.908 130.709L104.584 130.59L104.038 130.47L101.326 130.232L99.3993 130.266L98.9388 130.181L98.683 130.095L98.3931 129.976L98.1373 129.805L97.8986 129.601L97.728 129.396L97.5916 129.226L96.0056 125.388L95.6305 123.461L95.5111 123.12L95.1871 122.404L94.522 120.272L94.2832 119.846L94.0274 119.59L93.7716 119.386L93.3112 119.096L93.1748 118.976L93.0383 118.772L92.9531 118.516L92.9189 117.646L93.0383 116.35L93.0042 115.105L93.1406 112.769L93.3794 111.729L93.4135 111.217V110.893L93.243 110.433L93.2089 110.347V110.143L93.2941 109.904L93.4988 109.58L94.0786 108.829L94.1127 108.778L94.2491 108.369L94.4197 107.772L94.3855 107.312L94.6413 106.8L95.4429 105.538L95.6134 105.368L95.9545 105.112L96.2444 104.992L96.5343 104.941L96.7901 104.992L98.1203 105.658L98.666 105.862L99.5528 106.101L101.804 106.34H102.401L104.191 106.084L104.771 106.118L105.743 106.374H105.982L106.238 106.323L106.528 106.186L106.852 105.93L107.09 105.589L107.295 105.095L107.329 104.72L107.244 104.396L106.903 103.816L106.783 103.56L106.732 103.27L106.783 102.929L106.954 102.554L108.165 100.968L109.341 99.757L109.666 99.5524L109.955 99.416L114.099 98.4098L114.594 98.171L114.918 97.9664L115.583 97.3354L116.47 96.7556L116.726 96.4657L116.964 96.0905L117.425 95.1696L117.766 94.7092L117.971 94.5045L118.107 94.3681L118.312 94.2317L118.567 94.1123L118.823 94.027L119.113 93.9759H119.693L122.336 94.317L125.304 94.1123L126.429 94.1976L126.685 94.1635L126.924 94.0782L127.06 93.8736L127.145 93.6178L127.197 93.3278L127.231 92.9186V92.424L127.111 91.6225L126.975 91.1279L126.804 90.7187L126.463 90.0877L126.378 89.7637L126.429 89.3544L126.566 88.7234L126.514 88.2971L126.48 88.2459L125.525 86.9498L124.434 85.108L124.11 84.7329L123.138 83.7608L122.933 83.4709L122.797 83.2151L122.746 82.9252V82.6353L123.001 80.8276V80.2307L122.916 79.5998L122.95 79.2757L123.189 78.9517L123.479 78.7812L123.769 78.6959L124.263 78.5765L124.4 78.5254L124.604 78.3207L125.525 76.9906L125.986 76.479L126.531 75.9674L126.855 75.7286L127.179 75.5581L127.776 75.3534L128.066 75.217L128.305 75.0124L128.476 74.7736L128.561 74.5349L128.612 74.3643V74.1256L128.578 73.8698L128.493 73.5799L128.373 73.2558L128.237 72.9659L128.032 72.676L127.776 72.4202L127.265 71.9939L126.719 71.5846L125.918 71.2435L125.832 71.073L125.713 70.5784L125.679 70.2544L125.713 69.9645L125.747 69.7087L125.883 69.2824L126.054 68.8219L126.395 68.2762L126.719 67.8499L127.128 67.5088L127.299 67.3724H127.333L128.049 67.0825L128.288 67.2871L128.339 67.3724L128.373 67.4065L128.544 67.6452L128.783 67.8158L129.038 67.9351L129.328 67.9693L129.652 67.8328L129.908 67.6964L130.42 66.946V66.9631Z" fill="#57585B" stroke="#878F92" stroke-width="0.5" stroke-linecap="round" stroke-linejoin="round"></path><path d="M94.4529 107.397L93.3956 106.595L93.191 106.391L93.0204 106.135L92.7817 105.589L92.1166 102.997L91.9119 102.486L91.6732 102.11L91.6391 102.076L91.5197 101.957L91.3151 101.872L89.695 101.445L89.4051 101.309L89.1152 101.07L88.8764 100.695L88.757 100.371L88.7059 100.047L88.9617 96.4827L88.9105 96.1587L88.8253 95.8177L88.6206 95.5619L88.3819 95.3913L87.8362 95.2208L86.199 94.8115L85.875 94.6921L86.3696 94.2658L86.8641 94.0953L87.6145 94.01L88.0408 93.8906L90.0361 92.7992L90.4965 92.5945L90.9058 92.4752L92.1166 92.3558L92.4065 92.2705L92.6111 92.0659L92.6964 91.8612L92.6453 91.6225L92.5941 91.452L92.0143 90.3946L91.929 90.0706L91.8949 89.7807L91.9461 89.4396L92.1166 89.1497L92.4406 88.8087L92.7305 88.6722L92.9863 88.6381L93.191 88.6893L94.163 89.0645L94.487 89.1497H94.7769L95.0157 89.0986L95.1521 88.8598L95.2033 88.6211V88.3823L95.1692 88.2629L94.9304 87.1374V86.5576L94.9816 86.3018L95.1862 85.7049L95.4761 85.1251L95.6467 84.9205L95.9025 84.784H96.1583L96.4482 84.8181L96.7722 84.784L97.352 84.6476L97.6078 84.5282L97.7784 84.2724L97.8636 83.9825L98.0683 83.488L98.4093 82.8911L99.8759 81.1857L103.133 78.5424L104.634 77.5704L107.482 76.3596L107.908 76.0697L108.164 75.7457L108.334 75.4216L108.846 74.2961L109.272 73.7504L109.869 73.1535L110.824 72.5566L115.514 70.135L116.145 69.8963L116.435 69.811H116.725L116.981 69.8451L117.271 69.9645L117.56 70.1009L118.021 70.5102L118.908 71.4652L120.494 72.7613L121.039 73.0853L121.329 73.1706L122.625 73.2558L123.461 73.4264H123.751L123.99 73.3752L124.228 73.2388L124.399 73.1194L125.354 71.7892L125.866 71.2947L126.667 71.6358L127.213 72.045L127.724 72.4714L127.98 72.7272L128.185 73.0171L128.321 73.307L128.441 73.631L128.526 73.9209L128.56 74.1767V74.4155L128.509 74.586L128.424 74.8248L128.253 75.0635L128.014 75.2682L127.724 75.4046L127.127 75.6092L126.803 75.7798L126.479 76.0185L125.934 76.5301L125.473 77.0417L124.552 78.3719L124.348 78.5765L124.211 78.6277L123.717 78.7471L123.427 78.8323L123.137 79.0029L122.898 79.3269L122.864 79.6509L122.949 80.2819V80.8788L122.694 82.6864V82.9764L122.745 83.2663L122.881 83.5221L123.086 83.812L124.058 84.784L124.382 85.1592L125.473 87.001L126.428 88.2971L126.462 88.3482L126.514 88.7746L126.377 89.4055L126.326 89.8148L126.411 90.1388L126.752 90.7698L126.923 91.1791L127.059 91.6737L127.179 92.4752V92.9697L127.145 93.379L127.093 93.6689L127.008 93.9247L126.872 94.1294L126.633 94.2146L126.377 94.2487L125.252 94.1635L122.284 94.3681L119.641 94.027H119.061L118.771 94.0782L118.515 94.1635L118.26 94.2828L118.055 94.4193L117.919 94.5557L117.714 94.7603L117.373 95.2208L116.912 96.1417L116.674 96.5169L116.418 96.8068L115.531 97.3866L114.866 98.0176L114.542 98.2222L114.047 98.461L109.903 99.4671L109.614 99.6035L109.289 99.8082L108.113 101.019L106.902 102.605L106.731 102.98L106.68 103.321L106.731 103.611L106.851 103.867L107.192 104.447L107.277 104.771L107.243 105.146L107.038 105.64L106.8 105.982L106.476 106.237L106.186 106.374L105.93 106.425H105.691L104.719 106.169L104.139 106.135L102.349 106.391H101.752L99.5008 106.152L98.614 105.913L98.0683 105.709L96.7381 105.044L96.4823 104.992L96.1924 105.044L95.9025 105.163L95.5614 105.419L95.3909 105.589L94.5894 106.851L94.3336 107.363L94.4529 107.397Z" fill="#57585B" stroke="#878F92" stroke-width="0.5" stroke-linecap="round" stroke-linejoin="round"></path><path d="M75.1658 48.8692L76.5983 49.4661L77.3145 49.6366H77.6044L84.2041 48.1189L85.0909 47.9995L85.6025 48.0336L86.0118 48.0848L89.0303 49.0568L89.4566 49.1421H89.7806L90.1046 49.0909L91.6224 48.7158L92.9526 48.6305L93.2766 48.6646L97.54 49.6366L98.1198 49.8754L98.3756 50.0459L98.6655 50.3017L100.166 52.1094L100.541 52.3993L100.968 52.6892L101.565 52.928L102.025 52.9791L102.434 52.945L102.81 52.8598L103.151 52.7233L104.157 52.1776L104.498 52.0071L104.873 51.9559H105.299L105.555 52.0924L105.675 52.2117L105.709 52.3311L105.76 53.3884L105.794 53.559L105.879 53.883L106.05 54.3093L106.34 54.6333L106.766 54.9232L107.107 55.0085L107.431 55.0426L108.676 54.9232L109.102 54.9573L109.443 55.0767L110.774 55.7759L111.268 55.9465L111.592 55.9806L111.882 55.9294L112.377 55.6906L113.809 54.7357L114.15 54.5992L114.576 54.5651L114.918 54.6845L115.207 54.9232L115.412 55.2132L117.51 59.0161L118.55 61.7788L118.976 62.3756L119.3 62.6655L119.624 62.9213L120.051 63.126L120.392 63.2454L124.229 63.8422L124.655 63.9787L125.201 64.3027L125.491 64.5073L127.571 66.3832L127.895 66.7584L128.066 67.1677L127.35 67.4576H127.315L127.145 67.594L126.736 67.9351L126.412 68.3614L126.071 68.9071L125.9 69.3676L125.764 69.7939L125.729 70.0497L125.695 70.3396L125.729 70.6636L125.849 71.1582L125.934 71.3287L125.422 71.8233L124.468 73.1535L124.297 73.2728L124.058 73.4093L123.819 73.4604H123.53L122.694 73.2899L121.398 73.2046L121.108 73.1194L120.562 72.7953L118.976 71.4993L118.089 70.5443L117.629 70.135L117.339 69.9986L117.049 69.8792L116.793 69.8451H116.503L116.214 69.9303L115.583 70.1691L110.893 72.5907L109.938 73.1876L109.341 73.7844L108.915 74.3302L108.403 75.4557L108.233 75.7797L107.977 76.1037L107.55 76.3936L104.702 77.6044L103.202 78.5765L99.9445 81.2198L98.4779 82.9251L98.1369 83.522L97.9322 84.0166L97.8469 84.3065L97.6764 84.5623L97.4206 84.6816L96.8408 84.8181L96.5168 84.8522L96.2269 84.8181H95.9711L95.7153 84.9545L95.5447 85.1591L95.2548 85.739L95.0502 86.3358L94.999 86.5916V87.1715L95.2378 88.297L95.2719 88.4164V88.6551L95.2207 88.8939L95.0843 89.1326L94.8455 89.1838H94.5556L94.2316 89.0985L93.2595 88.7233L93.0549 88.6722L92.7991 88.7063L92.5092 88.8427L92.1852 89.1838L92.0146 89.4737L91.9635 89.8148L91.9976 90.1047L92.0829 90.4287L92.6627 91.486L92.7138 91.6565L92.765 91.8953L92.6797 92.0999L92.4751 92.3046L92.1852 92.3898L90.9744 92.5092L90.5651 92.6286L90.1046 92.8332L88.1094 93.9247L87.683 94.044L86.9327 94.1293L86.4381 94.2998L85.9436 94.7262L84.8863 94.4363L81.4073 93.8905L79.2757 93.9758L78.9346 94.0611L78.5082 94.1975L78.1672 94.4022L77.8773 94.658L76.9905 95.8176L76.7347 96.0563L76.4959 96.2269L76.2572 96.3463L76.0866 96.4315L75.8479 96.4827L75.5921 96.5338L75.0464 96.585L73.5798 96.5509L72.9488 96.6362L69.8621 97.7276L69.5722 97.7788H69.2823L68.9924 97.7446L68.7366 97.6594L68.4978 97.54L68.3614 97.4206L68.1568 97.216L67.9862 96.9602L67.8498 96.6362L67.7986 96.261L67.918 92.6115L67.6793 91.2302L67.3041 89.7124L67.2529 89.3714V88.9621L67.9521 84.2894L67.918 83.9995L67.7986 83.7096L67.5428 83.4708H67.2188L66.639 83.5902L66.3491 83.5561L66.0933 83.4708L65.8375 83.2321L65.7181 82.9422L65.684 82.6011L65.8545 82.1918L66.2809 81.3562L66.332 81.1857L66.4514 80.6911V80.3671L66.4173 80.026L66.3661 79.7361L66.1274 79.1563L66.332 79.0199L66.5367 78.73L66.7754 78.2695L67.4917 76.0185L67.8668 75.2681L68.4467 74.4836L69.9644 73.1535L70.2032 72.8977L70.4078 72.6077L70.5272 72.3178L70.5613 72.0279L70.5101 71.738L70.2543 71.414L69.9644 71.1582L68.4637 70.3567L67.9692 70.0327L67.7986 69.828L67.594 69.5722L67.4576 69.3164L66.1103 63.8081L65.991 63.4841L65.8204 63.1942L65.1042 62.478L63.6376 61.2672L62.8872 60.892L62.512 60.6362L62.2221 60.3463L62.171 60.2951L61.9152 59.9711L61.4547 59.7153L60.7555 59.4595L56.748 58.5045L56.458 58.3851L56.2534 58.2487L56.0146 57.9588L57.3619 56.4581L57.6518 56.2534L57.9758 56.0488L62.6655 53.7977L64.8313 53.2008L69.4358 50.5746L74.1596 48.6134L74.4154 48.5793L75.1999 48.784L75.1658 48.8692Z" fill="#57585B" stroke="#878F92" stroke-width="0.5" stroke-linecap="round" stroke-linejoin="round"></path><path d="M93.6856 161.065L93.0887 163.111L93.1228 163.452L93.2081 163.861L93.5321 164.185L93.6686 164.424L93.7197 164.748L93.6345 165.072L93.3445 165.481L93.0887 165.737L91.6221 166.777L91.3322 167.033L91.1617 167.374L91.0423 167.749L90.9912 168.67L90.7865 169.335L89.5416 172.064L89.2005 172.235L88.7742 172.286H87.6146L87.3588 172.32L87.12 172.439L87.0006 172.559L86.8642 172.729L86.5231 173.309L85.7387 175.407L85.4147 176.822L85.3294 177.078L85.193 177.334L84.9542 177.504L84.6984 177.641L84.4426 177.726L84.1527 177.76H83.8628L83.5217 177.709L83.2318 177.572L82.976 177.334L82.1915 176.293L81.8675 176.003L80.9125 175.492L80.7761 175.407L80.6056 175.202L80.4691 174.946L80.418 174.656L80.3839 174.4L80.4691 173.309L80.435 173.053L80.1963 172.183L80.1622 171.928L80.2986 170.58V170.29L80.2133 170.001L80.094 169.745L79.9575 169.506L79.8382 169.421L79.787 169.387L78.8661 169.097L78.6103 168.977L78.4057 168.739L78.3545 168.5L78.3886 168.244L78.5591 167.988L79.5141 167.016L79.7699 166.812L80.094 166.641L80.5032 166.522L81.714 166.351L82.0039 166.266L82.2939 166.129L82.5838 165.874L82.7543 165.618L83.0954 164.748L83.9651 163.162L84.0504 162.821V162.685L84.0163 162.275L83.8116 161.491L83.6922 160.945L83.6581 160.655L83.6922 160.399L83.7434 160.161L83.8287 160.024L83.9481 159.82L84.1527 159.581L84.3914 159.41L84.6814 159.291L84.9713 159.257L85.2953 159.291L85.6705 159.461L85.9263 159.7L86.1309 159.99L86.5061 161.082L86.6425 161.337L86.813 161.576L87.0177 161.713L87.1541 161.764L87.4099 161.798L87.7851 161.678L88.382 161.423L88.723 161.337L89.1323 161.286H90.4625L90.7183 161.201L91.0082 161.082L92.1679 160.416L92.4236 160.331L92.7477 160.382L92.9864 160.468L93.7027 161.065H93.6856Z" fill="#57585B" stroke="#878F92" stroke-width="0.5" stroke-linecap="round" stroke-linejoin="round"></path><path d="M135.636 1C135.769 1.13354 135.904 1.3855 136.034 1.38298C137.038 1.36031 138.04 1.28976 139.041 1.23433C139.041 1.49133 139.046 1.74833 139.046 2.00533C139.046 7.91135 139.041 13.8199 139.038 19.7259C137.842 19.7183 136.63 19.5848 135.451 19.7284C131.358 20.2298 127.851 22.0818 124.857 24.8533C121.435 28.0205 119.272 31.9209 118.398 36.5722C117.67 40.4524 117.958 44.2293 119.367 47.8525C121.64 53.7006 125.678 57.9235 131.568 60.1458C133.348 60.8186 135.266 61.1461 137.141 61.5215C137.737 61.64 138.403 61.4056 139.038 61.3326C139.038 64.7139 139.031 68.0927 139.033 71.4741C139.038 82.2505 139.046 93.027 139.053 103.803C138.978 103.803 138.903 103.803 138.831 103.803C137.682 102.37 136.52 100.944 135.386 99.4974C132.6 95.9422 129.816 92.382 127.047 88.8091C124.624 85.6848 122.231 82.5378 119.808 79.4134C117.039 75.8406 114.245 72.2904 111.481 68.7176C108.723 65.1498 105.839 61.6551 103.886 57.5481C102.397 54.4111 101.3 51.1104 100.659 47.6787C100.046 44.3931 99.8732 41.0647 100.088 37.7488C100.371 33.4201 101.418 29.235 103.098 25.2288C104.797 21.1772 107.1 17.4885 110.027 14.2407C112.803 11.1592 115.987 8.55385 119.582 6.4424C122.792 4.55772 126.179 3.17444 129.781 2.34044C131.273 1.99525 132.805 1.82392 134.325 1.60975C134.96 1.51904 135.211 1.39558 135.233 1C135.366 1 135.499 1 135.634 1H135.636Z" fill="#E24412"></path><path d="M139.259 103.809C139.239 103.871 139.231 103.934 139.234 103.997C139.099 103.932 138.966 103.869 138.831 103.803C138.906 103.803 138.981 103.803 139.053 103.803C139.121 103.803 139.189 103.803 139.256 103.806L139.259 103.809Z" fill="#CACACA"></path><path d="M139.259 103.809C139.191 103.809 139.124 103.809 139.056 103.806C139.048 93.0295 139.041 82.2531 139.036 71.4766C139.036 68.0953 139.038 64.7164 139.041 61.3351C139.737 61.3401 140.438 61.4006 141.126 61.3427C143.69 61.1335 146.151 60.5465 148.409 59.2463C150.862 57.8328 153.278 56.3815 155.028 54.0458C156.762 51.7277 158.272 49.3165 159.053 46.4718C159.709 44.0832 160.127 41.682 159.809 39.2153C159.571 37.3709 159.383 35.4887 158.845 33.725C157.588 29.6004 155.033 26.3273 151.691 23.6792C150.116 22.432 148.356 21.4871 146.433 20.8723C146.296 20.822 146.156 20.7716 146.018 20.7212C145.955 20.7212 145.893 20.7136 145.83 20.7061C145.695 20.6431 145.56 20.5801 145.425 20.5146C144.606 20.2651 143.802 19.8796 142.966 19.7965C141.67 19.6654 140.35 19.7385 139.041 19.7259C139.041 13.8199 139.046 7.91136 139.048 2.00535C139.311 1.75086 139.574 1.49638 139.835 1.23938C142.706 1.32757 145.55 1.63496 148.333 2.38833C148.486 2.42865 148.664 2.38077 148.829 2.37321C149.295 2.50423 149.763 2.63274 150.229 2.76376C151.295 3.10139 152.361 3.43902 153.428 3.77665C153.823 3.9379 154.219 4.09664 154.612 4.2579C155.876 4.86513 157.143 5.47236 158.407 6.07959C159.063 6.47265 159.721 6.86572 160.377 7.25878C161.589 8.19356 162.805 9.12331 164.01 10.0656C164.423 10.3882 164.811 10.7434 165.211 11.0811C165.609 11.4766 166.01 11.8722 166.408 12.2678C166.611 12.4669 166.813 12.6684 167.016 12.8675C167.399 13.2101 167.785 13.5528 168.168 13.898C169.074 15.0873 169.98 16.2765 170.886 17.4683C171.259 17.9597 171.625 18.4535 171.993 18.9473C172.383 19.6075 172.776 20.2702 173.167 20.9303C174.196 23.4071 175.227 25.8814 176.256 28.3582L176.652 29.7666C176.724 30.1018 176.797 30.4369 176.869 30.772C176.975 31.2457 177.08 31.7168 177.185 32.1905C177.458 35.3249 177.753 38.4594 177.988 41.5963C178.043 42.3396 177.898 43.098 177.846 43.8489C177.846 44.0504 177.846 44.252 177.843 44.4536C177.445 46.6003 177.045 48.7445 176.647 50.8912C176.446 51.5614 176.244 52.2317 176.043 52.9019C175.976 53.1035 175.908 53.305 175.841 53.5066C175.693 53.8997 175.548 54.2927 175.4 54.6858C174.531 56.5025 173.66 58.3191 172.791 60.1383C172.526 60.5994 172.263 61.0605 171.998 61.519C171.662 61.9978 171.329 62.4765 170.994 62.9552C170.724 63.3558 170.453 63.7565 170.185 64.1571C170.06 64.2931 169.935 64.4317 169.81 64.5678C169.542 64.8953 169.277 65.2254 169.009 65.553C168.809 65.8276 168.608 66.1022 168.408 66.3769C168.143 66.7044 167.875 67.0345 167.609 67.3621C167.409 67.6367 167.209 67.9113 167.009 68.186C166.666 68.6521 166.323 69.1157 165.98 69.5818C165.577 70.1236 165.174 70.6653 164.773 71.207C164.655 71.3481 164.54 71.4892 164.423 71.6328C164.087 72.0284 163.752 72.4215 163.416 72.8171C163.148 73.1446 162.881 73.4747 162.613 73.8022C162.412 74.0769 162.215 74.3515 162.014 74.6262C161.747 74.9537 161.481 75.2838 161.213 75.6113C161.013 75.886 160.813 76.1606 160.613 76.4352L159.814 77.4204C159.554 77.8286 159.293 78.2393 159.03 78.6475C158.898 78.7886 158.763 78.9322 158.63 79.0733C158.49 79.2673 158.349 79.4588 158.209 79.6528C158.149 79.7057 158.087 79.7612 158.027 79.8141L157.223 80.8622C156.955 81.1948 156.687 81.5249 156.419 81.8575C156.152 82.1951 155.884 82.5353 155.618 82.8729C155.35 83.2005 155.083 83.5305 154.815 83.8581C154.614 84.1327 154.417 84.4074 154.216 84.682C153.949 85.0096 153.683 85.3396 153.415 85.6672C153.215 85.9418 153.015 86.2164 152.815 86.4911C152.549 86.8186 152.281 87.1487 152.016 87.4763C151.816 87.7509 151.615 88.0256 151.415 88.3002C151.072 88.7663 150.729 89.2299 150.386 89.6961C150.066 90.1042 149.748 90.5124 149.427 90.9181C149.16 91.2507 148.892 91.5808 148.624 91.9133C148.356 92.251 148.088 92.5911 147.823 92.9288C147.555 93.2563 147.287 93.5864 147.019 93.9139C146.819 94.1886 146.621 94.4632 146.421 94.7378C146.153 95.0654 145.888 95.3955 145.62 95.723C145.42 95.9977 145.219 96.2723 145.019 96.5469L144.22 97.5321C144.02 97.8068 143.82 98.0814 143.62 98.356C143.277 98.8222 142.934 99.2858 142.591 99.7519C142.27 100.16 141.952 100.568 141.632 100.974C141.364 101.307 141.096 101.637 140.828 101.969C140.561 102.307 140.293 102.647 140.027 102.985C139.769 103.257 139.514 103.529 139.256 103.798L139.259 103.809Z" fill="#E24412"></path><path d="M139.835 1.23938C139.572 1.49386 139.309 1.74835 139.048 2.00535C139.048 1.74835 139.043 1.49132 139.043 1.23431C139.309 1.23431 139.572 1.23935 139.837 1.23935L139.835 1.23938Z" fill="#CACACA"></path><path d="M164.42 71.6354C164.538 71.4943 164.653 71.3532 164.771 71.2095C164.653 71.3506 164.538 71.4917 164.42 71.6354Z" fill="#CACACA"></path><path d="M145.828 20.706C145.692 20.643 145.557 20.58 145.422 20.5145C145.557 20.5775 145.692 20.6405 145.828 20.706Z" fill="#CACACA"></path><path d="M189.508 96C189.547 96.0394 189.587 96.1137 189.625 96.1129C189.921 96.1062 190.217 96.0854 190.512 96.0691C190.512 96.1449 190.513 96.2207 190.513 96.2964C190.513 98.0379 190.512 99.7802 190.511 101.522C190.158 101.519 189.801 101.48 189.453 101.522C188.247 101.67 187.212 102.216 186.33 103.034C185.32 103.968 184.683 105.118 184.425 106.489C184.21 107.633 184.295 108.747 184.711 109.815C185.381 111.54 186.572 112.785 188.309 113.44C188.833 113.639 189.399 113.735 189.952 113.846C190.127 113.881 190.324 113.812 190.511 113.79C190.511 114.787 190.509 115.784 190.51 116.781C190.511 119.958 190.513 123.136 190.516 126.314C190.494 126.314 190.471 126.314 190.45 126.314C190.111 125.891 189.769 125.47 189.434 125.044C188.613 123.996 187.792 122.946 186.975 121.892C186.261 120.971 185.555 120.043 184.841 119.122C184.024 118.068 183.2 117.021 182.385 115.968C181.572 114.916 180.722 113.885 180.146 112.674C179.707 111.749 179.383 110.776 179.194 109.764C179.014 108.795 178.963 107.814 179.026 106.836C179.11 105.56 179.418 104.326 179.913 103.144C180.415 101.95 181.094 100.862 181.957 99.9043C182.775 98.9956 183.714 98.2274 184.774 97.6048C185.721 97.0491 186.719 96.6412 187.781 96.3953C188.221 96.2935 188.673 96.2429 189.121 96.1798C189.309 96.1531 189.383 96.1166 189.389 96C189.428 96 189.468 96 189.508 96Z" fill="#E24412"></path><path d="M190.577 126.315C190.571 126.334 190.569 126.352 190.57 126.371C190.529 126.352 190.49 126.333 190.45 126.314C190.471 126.314 190.494 126.314 190.516 126.314C190.536 126.314 190.556 126.314 190.576 126.314L190.577 126.315Z" fill="#CACACA"></path><path d="M190.576 126.314C190.556 126.314 190.536 126.315 190.516 126.314C190.514 123.137 190.512 119.959 190.511 116.781C190.511 115.784 190.511 114.788 190.512 113.791C190.717 113.792 190.924 113.81 191.127 113.793C191.883 113.732 192.608 113.558 193.274 113.175C193.998 112.758 194.71 112.33 195.226 111.642C195.737 110.958 196.183 110.247 196.413 109.408C196.606 108.704 196.73 107.996 196.636 107.268C196.566 106.725 196.51 106.17 196.352 105.65C195.981 104.433 195.227 103.468 194.242 102.687C193.778 102.32 193.259 102.041 192.692 101.86C192.651 101.845 192.61 101.83 192.569 101.815C192.551 101.815 192.532 101.813 192.514 101.811C192.474 101.792 192.434 101.774 192.394 101.754C192.153 101.681 191.916 101.567 191.669 101.542C191.287 101.504 190.897 101.525 190.511 101.522C190.512 99.7802 190.513 98.0379 190.513 96.2964C190.591 96.2214 190.669 96.1464 190.746 96.0706C191.593 96.0966 192.431 96.1872 193.252 96.4094C193.297 96.4213 193.349 96.4071 193.398 96.4049C193.536 96.4435 193.674 96.4814 193.811 96.5201C194.125 96.6196 194.44 96.7192 194.754 96.8187C194.871 96.8663 194.987 96.9131 195.103 96.9606C195.476 97.1397 195.85 97.3187 196.222 97.4978C196.416 97.6137 196.61 97.7296 196.803 97.8455C197.161 98.1211 197.519 98.3953 197.874 98.6732C197.996 98.7683 198.111 98.873 198.229 98.9726C198.346 99.0892 198.464 99.2059 198.582 99.3225C198.641 99.3812 198.701 99.4406 198.761 99.4993C198.874 99.6004 198.988 99.7014 199.101 99.8032C199.368 100.154 199.635 100.505 199.902 100.856C200.012 101.001 200.12 101.146 200.228 101.292C200.344 101.487 200.46 101.682 200.575 101.877C200.878 102.607 201.182 103.337 201.486 104.067L201.602 104.482C201.624 104.581 201.645 104.68 201.666 104.779C201.697 104.919 201.728 105.057 201.759 105.197C201.84 106.121 201.927 107.046 201.996 107.971C202.013 108.19 201.97 108.413 201.954 108.635C201.954 108.694 201.954 108.754 201.954 108.813C201.836 109.446 201.718 110.078 201.601 110.711C201.542 110.909 201.482 111.107 201.423 111.304C201.403 111.364 201.383 111.423 201.363 111.483C201.319 111.598 201.277 111.714 201.233 111.83C200.977 112.366 200.72 112.902 200.464 113.438C200.386 113.574 200.308 113.71 200.23 113.845C200.131 113.986 200.033 114.128 199.934 114.269C199.854 114.387 199.774 114.505 199.696 114.623C199.659 114.663 199.622 114.704 199.585 114.744C199.506 114.841 199.428 114.938 199.349 115.035C199.29 115.116 199.23 115.197 199.171 115.278C199.093 115.374 199.014 115.472 198.936 115.568C198.877 115.649 198.818 115.73 198.759 115.811C198.658 115.949 198.557 116.085 198.455 116.223C198.337 116.382 198.218 116.542 198.1 116.702C198.065 116.743 198.031 116.785 197.996 116.827C197.897 116.944 197.798 117.06 197.7 117.177C197.621 117.273 197.542 117.371 197.463 117.467C197.404 117.548 197.345 117.629 197.286 117.71C197.207 117.807 197.129 117.904 197.05 118.001C196.991 118.082 196.932 118.163 196.873 118.244L196.637 118.534C196.561 118.654 196.484 118.775 196.406 118.896C196.367 118.937 196.327 118.98 196.288 119.021C196.247 119.079 196.205 119.135 196.164 119.192C196.146 119.208 196.128 119.224 196.11 119.24L195.873 119.549C195.794 119.647 195.715 119.744 195.636 119.842C195.557 119.942 195.478 120.042 195.4 120.142C195.321 120.238 195.242 120.336 195.163 120.432C195.104 120.513 195.046 120.594 194.987 120.675C194.908 120.772 194.83 120.869 194.751 120.966C194.691 121.047 194.632 121.128 194.573 121.209C194.495 121.305 194.416 121.403 194.338 121.499C194.279 121.58 194.22 121.661 194.161 121.742C194.06 121.88 193.958 122.016 193.857 122.154C193.763 122.274 193.669 122.394 193.575 122.514C193.496 122.612 193.417 122.709 193.338 122.808C193.259 122.907 193.18 123.007 193.101 123.107C193.022 123.204 192.944 123.301 192.865 123.397C192.805 123.478 192.747 123.559 192.688 123.64C192.609 123.737 192.531 123.834 192.452 123.931C192.393 124.012 192.334 124.093 192.275 124.174L192.039 124.464C191.98 124.545 191.921 124.626 191.862 124.707C191.761 124.845 191.66 124.981 191.559 125.119C191.464 125.239 191.37 125.36 191.276 125.479C191.197 125.577 191.118 125.675 191.039 125.773C190.96 125.872 190.881 125.973 190.803 126.072C190.727 126.152 190.651 126.233 190.575 126.312L190.576 126.314Z" fill="#E24412"></path><path d="M190.746 96.0706C190.668 96.1456 190.59 96.2207 190.513 96.2964C190.513 96.2207 190.512 96.1449 190.512 96.0691C190.59 96.0691 190.668 96.0706 190.746 96.0706Z" fill="#CACACA"></path></svg>